<svg width="1440" height="1175" viewBox="0 0 1440 1175" fill="none" xmlns="http://www.w3.org/2000/svg">
<g clip-path="url(#clip0_242_8063)">
<path d="M16.3637 83.0079L19 85.3181L21.6363 83.0079L145.808 -25.806L147.052 -26.8967L147.163 -28.5479L149.991 -70.9294L150.121 -72.8758L148.667 -74.1766L121.514 -98.4753L120.455 -99.4225L119.036 -99.49L83.3972 -101.185L81.4799 -101.276L80.2092 -99.8379L79.0224 -98.4942L79.8515 -128.725L79.8972 -130.39L78.747 -131.596L44.2392 -167.761L43.0573 -169H41.3452H-3.34521H-5.0573L-6.2392 -167.761L-40.747 -131.596L-41.8972 -130.39L-41.8515 -128.725L-41.0224 -98.4942L-42.2092 -99.8379L-43.4799 -101.276L-45.3972 -101.185L-81.0364 -99.49L-82.4552 -99.4225L-83.5137 -98.4753L-110.667 -74.1766L-112.121 -72.8758L-111.991 -70.9294L-109.163 -28.5479L-109.052 -26.8967L-107.808 -25.806L16.3637 83.0079Z" fill="#F3B744" stroke="#222A69" stroke-width="8"/>
<path d="M139.291 -30.7318L19 74.6811L-101.291 -30.7318L-103.879 -69.5157L-79.2375 -91.5664L-46.9343 -93.103L-39.7195 -84.9351L-32.4208 -76.6722L-32.7231 -87.6928L-33.8088 -127.279L-1.63313 -161H39.6331L71.8088 -127.279L70.7231 -87.6928L70.4208 -76.6722L77.7195 -84.9351L84.9343 -93.103L117.237 -91.5664L141.879 -69.5157L139.291 -30.7318Z" fill="#F3B744" stroke="white" stroke-width="8"/>
<path d="M21.6363 167.992L19 165.682L16.3637 167.992L-107.808 276.806L-109.052 277.897L-109.163 279.548L-111.991 321.929L-112.121 323.876L-110.667 325.177L-83.5137 349.475L-82.4552 350.423L-81.0364 350.49L-45.3972 352.185L-43.4799 352.276L-42.2092 350.838L-41.0224 349.494L-41.8515 379.725L-41.8972 381.39L-40.747 382.596L-6.23919 418.761L-5.05729 420H-3.34521H41.3452H43.0573L44.2392 418.761L78.747 382.596L79.8972 381.39L79.8515 379.725L79.0224 349.494L80.2092 350.838L81.4799 352.276L83.3972 352.185L119.036 350.49L120.455 350.423L121.514 349.475L148.667 325.177L150.121 323.876L149.991 321.929L147.163 279.548L147.052 277.897L145.808 276.806L21.6363 167.992Z" fill="#F3B744" stroke="#222A69" stroke-width="8"/>
<path d="M-32.7231 338.693L-32.4208 327.672L-39.7195 335.935L-46.9343 344.103L-79.2374 342.567L-103.879 320.516L-101.291 281.732L19 176.319L139.291 281.732L141.879 320.516L117.237 342.567L84.9343 344.103L77.7195 335.935L70.4209 327.672L70.7231 338.693L71.8088 378.279L39.6331 412H-1.63314L-33.8088 378.279L-32.7231 338.693Z" fill="#F3B744" stroke="white" stroke-width="8"/>
</g>
<g clip-path="url(#clip1_242_8063)">
<path d="M371.636 -182.008L369 -184.318L366.364 -182.008L242.192 -73.194L240.948 -72.1033L240.837 -70.4521L238.009 -28.0706L237.879 -26.1242L239.333 -24.8234L266.486 -0.524704L267.545 0.422501L268.964 0.48999L304.603 2.18526L306.52 2.27646L307.791 0.837875L308.978 -0.505753L308.148 29.7249L308.103 31.3905L309.253 32.5959L343.761 68.7615L344.943 70.0001H346.655H391.345H393.057L394.239 68.7615L428.747 32.5959L429.897 31.3905L429.851 29.7249L429.022 -0.505753L430.209 0.837875L431.48 2.27646L433.397 2.18526L469.036 0.48999L470.455 0.422501L471.514 -0.524704L498.667 -24.8234L500.121 -26.1242L499.991 -28.0706L497.163 -70.4521L497.052 -72.1033L495.808 -73.194L371.636 -182.008Z" fill="#F3B744" stroke="#222A69" stroke-width="8"/>
<path d="M317.277 -11.307L317.579 -22.3277L310.28 -14.0648L303.066 -5.89691L270.763 -7.43349L246.121 -29.4842L248.709 -68.2681L369 -173.681L489.291 -68.2681L491.879 -29.4842L467.237 -7.43349L434.934 -5.89691L427.72 -14.0648L420.421 -22.3277L420.723 -11.307L421.809 28.2787L389.633 62.0001H348.367L316.191 28.2787L317.277 -11.307Z" fill="#F3B744" stroke="white" stroke-width="8"/>
<path d="M366.364 433.008L369 435.318L371.636 433.008L495.808 324.194L497.052 323.103L497.163 321.452L499.991 279.071L500.121 277.124L498.667 275.823L471.514 251.525L470.455 250.577L469.036 250.51L433.397 248.815L431.48 248.724L430.209 250.162L429.022 251.506L429.852 221.275L429.897 219.61L428.747 218.404L394.239 182.239L393.057 181H391.345H346.655H344.943L343.761 182.239L309.253 218.404L308.103 219.61L308.149 221.275L308.978 251.506L307.791 250.162L306.52 248.724L304.603 248.815L268.964 250.51L267.545 250.577L266.486 251.525L239.333 275.823L237.879 277.124L238.009 279.071L240.837 321.452L240.948 323.103L242.192 324.194L366.364 433.008Z" fill="#F3B744" stroke="#222A69" stroke-width="8"/>
<path d="M489.291 319.268L369 424.681L248.709 319.268L246.121 280.484L270.763 258.434L303.066 256.897L310.28 265.065L317.579 273.328L317.277 262.307L316.191 222.721L348.367 189H389.633L421.809 222.721L420.723 262.307L420.421 273.328L427.72 265.065L434.934 256.897L467.237 258.434L491.879 280.484L489.291 319.268Z" fill="#F3B744" stroke="white" stroke-width="8"/>
<path d="M61.9921 122.364L59.6819 125L61.9921 127.636L170.806 251.808L171.897 253.052L173.548 253.163L215.929 255.991L217.876 256.121L219.177 254.667L243.475 227.514L244.423 226.455L244.49 225.036L246.185 189.397L246.276 187.48L244.838 186.209L243.494 185.022L273.725 185.852L275.39 185.897L276.596 184.747L312.761 150.239L314 149.057V147.345V102.655V100.943L312.761 99.7608L276.596 65.253L275.39 64.1028L273.725 64.1485L243.494 64.9776L244.838 63.7908L246.276 62.5201L246.185 60.6028L244.49 24.9636L244.423 23.5448L243.475 22.4863L219.177 -4.66739L217.876 -6.12103L215.929 -5.99112L173.548 -3.1626L171.897 -3.0524L170.806 -1.80774L61.9921 122.364Z" fill="#3688BB" stroke="#222A69" stroke-width="8"/>
<path d="M175.732 245.291L70.3189 125L175.732 4.70944L214.516 2.12103L236.566 26.7625L238.103 59.0657L229.935 66.2805L221.672 73.5792L232.693 73.2769L272.279 72.1912L306 104.367V145.633L272.279 177.809L232.693 176.723L221.672 176.421L229.935 183.72L238.103 190.934L236.566 223.237L214.516 247.879L175.732 245.291Z" fill="#3688BB" stroke="white" stroke-width="8"/>
<path d="M677.008 127.636L679.318 125L677.008 122.364L568.194 -1.80776L567.103 -3.05241L565.452 -3.16261L523.071 -5.99112L521.124 -6.12102L519.823 -4.66738L495.525 22.4863L494.577 23.5448L494.51 24.9636L492.815 60.6028L492.724 62.5201L494.162 63.7908L495.506 64.9776L465.275 64.1485L463.61 64.1028L462.404 65.253L426.239 99.7608L425 100.943V102.655V147.345V149.057L426.239 150.239L462.404 184.747L463.61 185.897L465.275 185.851L495.506 185.022L494.162 186.209L492.724 187.48L492.815 189.397L494.51 225.036L494.577 226.455L495.525 227.514L519.823 254.667L521.124 256.121L523.071 255.991L565.452 253.163L567.103 253.052L568.194 251.808L677.008 127.636Z" fill="#3688BB" stroke="#222A69" stroke-width="8"/>
<path d="M563.268 4.70943L668.681 125L563.268 245.291L524.484 247.879L502.434 223.237L500.897 190.934L509.065 183.72L517.328 176.421L506.307 176.723L466.721 177.809L433 145.633V104.367L466.721 72.1912L506.307 73.2769L517.328 73.5792L509.065 66.2805L500.897 59.0657L502.434 26.7625L524.484 2.12102L563.268 4.70943Z" fill="#3688BB" stroke="white" stroke-width="8"/>
<path d="M716.364 83.0079L719 85.3181L721.636 83.0079L845.808 -25.806L847.052 -26.8967L847.163 -28.5479L849.991 -70.9294L850.121 -72.8758L848.667 -74.1766L821.514 -98.4753L820.455 -99.4225L819.036 -99.49L783.397 -101.185L781.48 -101.276L780.209 -99.8379L779.022 -98.4942L779.852 -128.725L779.897 -130.39L778.747 -131.596L744.239 -167.761L743.057 -169H741.345H696.655H694.943L693.761 -167.761L659.253 -131.596L658.103 -130.39L658.149 -128.725L658.978 -98.4942L657.791 -99.8379L656.52 -101.276L654.603 -101.185L618.964 -99.49L617.545 -99.4225L616.486 -98.4753L589.333 -74.1766L587.879 -72.8758L588.009 -70.9294L590.837 -28.5479L590.948 -26.8967L592.192 -25.806L716.364 83.0079Z" fill="#F3B744" stroke="#222A69" stroke-width="8"/>
<path d="M839.291 -30.7318L719 74.6811L598.709 -30.7318L596.121 -69.5157L620.763 -91.5664L653.066 -93.103L660.28 -84.9351L667.579 -76.6722L667.277 -87.6928L666.191 -127.279L698.367 -161H739.633L771.809 -127.279L770.723 -87.6928L770.421 -76.6722L777.72 -84.9351L784.934 -93.103L817.237 -91.5664L841.879 -69.5157L839.291 -30.7318Z" fill="#F3B744" stroke="white" stroke-width="8"/>
<path d="M721.636 167.992L719 165.682L716.364 167.992L592.192 276.806L590.948 277.897L590.837 279.548L588.009 321.929L587.879 323.876L589.333 325.177L616.486 349.475L617.545 350.423L618.964 350.49L654.603 352.185L656.52 352.276L657.791 350.838L658.978 349.494L658.148 379.725L658.103 381.39L659.253 382.596L693.761 418.761L694.943 420H696.655H741.345H743.057L744.239 418.761L778.747 382.596L779.897 381.39L779.851 379.725L779.022 349.494L780.209 350.838L781.48 352.276L783.397 352.185L819.036 350.49L820.455 350.423L821.514 349.475L848.667 325.177L850.121 323.876L849.991 321.929L847.163 279.548L847.052 277.897L845.808 276.806L721.636 167.992Z" fill="#F3B744" stroke="#222A69" stroke-width="8"/>
<path d="M667.277 338.693L667.579 327.672L660.28 335.935L653.066 344.103L620.763 342.567L596.121 320.516L598.709 281.732L719 176.319L839.291 281.732L841.879 320.516L817.237 342.567L784.934 344.103L777.72 335.935L770.421 327.672L770.723 338.693L771.809 378.279L739.633 412H698.367L666.191 378.279L667.277 338.693Z" fill="#F3B744" stroke="white" stroke-width="8"/>
<path d="M411.992 472.364L409.682 475L411.992 477.636L520.806 601.808L521.897 603.052L523.548 603.163L565.929 605.991L567.876 606.121L569.177 604.667L593.475 577.514L594.423 576.455L594.49 575.036L596.185 539.397L596.276 537.48L594.838 536.209L593.494 535.022L623.725 535.852L625.39 535.897L626.596 534.747L662.761 500.239L664 499.057V497.345V452.655V450.943L662.761 449.761L626.596 415.253L625.39 414.103L623.725 414.149L593.494 414.978L594.838 413.791L596.276 412.52L596.185 410.603L594.49 374.964L594.423 373.545L593.475 372.486L569.177 345.333L567.876 343.879L565.929 344.009L523.548 346.837L521.897 346.948L520.806 348.192L411.992 472.364Z" fill="#3688BB" stroke="#222A69" stroke-width="8"/>
<path d="M525.732 595.291L420.319 475L525.732 354.709L564.516 352.121L586.566 376.763L588.103 409.066L579.935 416.28L571.672 423.579L582.693 423.277L622.279 422.191L656 454.367V495.633L622.279 527.809L582.693 526.723L571.672 526.421L579.935 533.72L588.103 540.934L586.566 573.237L564.516 597.879L525.732 595.291Z" fill="#3688BB" stroke="white" stroke-width="8"/>
<path d="M21.6363 167.992L19 165.682L16.3637 167.992L-107.808 276.806L-109.052 277.897L-109.163 279.548L-111.991 321.929L-112.121 323.876L-110.667 325.177L-83.5137 349.475L-82.4552 350.423L-81.0364 350.49L-45.3972 352.185L-43.4799 352.276L-42.2092 350.838L-41.0224 349.494L-41.8515 379.725L-41.8972 381.39L-40.747 382.596L-6.23919 418.761L-5.05729 420H-3.34521H41.3452H43.0573L44.2392 418.761L78.747 382.596L79.8972 381.39L79.8515 379.725L79.0224 349.494L80.2092 350.838L81.4799 352.276L83.3972 352.185L119.036 350.49L120.455 350.423L121.514 349.475L148.667 325.177L150.121 323.876L149.991 321.929L147.163 279.548L147.052 277.897L145.808 276.806L21.6363 167.992Z" fill="#F3B744" stroke="#222A69" stroke-width="8"/>
<path d="M-32.7231 338.693L-32.4208 327.672L-39.7195 335.935L-46.9343 344.103L-79.2374 342.567L-103.879 320.516L-101.291 281.732L19 176.319L139.291 281.732L141.879 320.516L117.237 342.567L84.9343 344.103L77.7195 335.935L70.4209 327.672L70.7231 338.693L71.8088 378.279L39.6331 412H-1.63314L-33.8088 378.279L-32.7231 338.693Z" fill="#F3B744" stroke="white" stroke-width="8"/>
<path d="M327.008 477.636L329.318 475L327.008 472.364L218.194 348.192L217.103 346.948L215.452 346.837L173.071 344.009L171.124 343.879L169.823 345.333L145.525 372.486L144.577 373.545L144.51 374.964L142.815 410.603L142.724 412.52L144.162 413.791L145.506 414.978L115.275 414.148L113.61 414.103L112.404 415.253L76.2385 449.761L74.9999 450.943V452.655V497.345V499.057L76.2385 500.239L112.404 534.747L113.61 535.897L115.275 535.851L145.506 535.022L144.162 536.209L142.724 537.48L142.815 539.397L144.51 575.036L144.577 576.455L145.525 577.514L169.823 604.667L171.124 606.121L173.071 605.991L215.452 603.163L217.103 603.052L218.194 601.808L327.008 477.636Z" fill="#3688BB" stroke="#222A69" stroke-width="8"/>
<path d="M213.268 354.709L318.681 475L213.268 595.291L174.484 597.879L152.434 573.237L150.897 540.934L159.065 533.72L167.328 526.421L156.307 526.723L116.721 527.809L83 495.633V454.367L116.721 422.191L156.307 423.277L167.328 423.579L159.065 416.28L150.897 409.066L152.434 376.763L174.484 352.121L213.268 354.709Z" fill="#3688BB" stroke="white" stroke-width="8"/>
<path d="M16.3637 83.0079L19 85.3181L21.6363 83.0079L145.808 -25.806L147.052 -26.8967L147.163 -28.5479L149.991 -70.9294L150.121 -72.8758L148.667 -74.1766L121.514 -98.4753L120.455 -99.4225L119.036 -99.49L83.3972 -101.185L81.4799 -101.276L80.2092 -99.8379L79.0224 -98.4942L79.8515 -128.725L79.8972 -130.39L78.747 -131.596L44.2392 -167.761L43.0573 -169H41.3452H-3.34521H-5.0573L-6.2392 -167.761L-40.747 -131.596L-41.8972 -130.39L-41.8515 -128.725L-41.0224 -98.4942L-42.2092 -99.8379L-43.4799 -101.276L-45.3972 -101.185L-81.0364 -99.49L-82.4552 -99.4225L-83.5137 -98.4753L-110.667 -74.1766L-112.121 -72.8758L-111.991 -70.9294L-109.163 -28.5479L-109.052 -26.8967L-107.808 -25.806L16.3637 83.0079Z" fill="#F3B744" stroke="#222A69" stroke-width="8"/>
<path d="M139.291 -30.7318L19 74.6811L-101.291 -30.7318L-103.879 -69.5157L-79.2375 -91.5664L-46.9343 -93.103L-39.7195 -84.9351L-32.4208 -76.6722L-32.7231 -87.6928L-33.8088 -127.279L-1.63313 -161H39.6331L71.8088 -127.279L70.7231 -87.6928L70.4208 -76.6722L77.7195 -84.9351L84.9343 -93.103L117.237 -91.5664L141.879 -69.5157L139.291 -30.7318Z" fill="#F3B744" stroke="white" stroke-width="8"/>
</g>
<g clip-path="url(#clip2_242_8063)">
<path d="M1071.64 -182.008L1069 -184.318L1066.36 -182.008L942.192 -73.194L940.948 -72.1033L940.837 -70.4521L938.009 -28.0706L937.879 -26.1242L939.333 -24.8234L966.486 -0.524704L967.545 0.422501L968.964 0.48999L1004.6 2.18526L1006.52 2.27646L1007.79 0.837875L1008.98 -0.505753L1008.15 29.7249L1008.1 31.3905L1009.25 32.5959L1043.76 68.7615L1044.94 70.0001H1046.65H1091.35H1093.06L1094.24 68.7615L1128.75 32.5959L1129.9 31.3905L1129.85 29.7249L1129.02 -0.505753L1130.21 0.837875L1131.48 2.27646L1133.4 2.18526L1169.04 0.48999L1170.46 0.422501L1171.51 -0.524704L1198.67 -24.8234L1200.12 -26.1242L1199.99 -28.0706L1197.16 -70.4521L1197.05 -72.1033L1195.81 -73.194L1071.64 -182.008Z" fill="#F3B744" stroke="#222A69" stroke-width="8"/>
<path d="M1017.28 -11.307L1017.58 -22.3277L1010.28 -14.0648L1003.07 -5.89691L970.763 -7.43349L946.121 -29.4842L948.709 -68.2681L1069 -173.681L1189.29 -68.2681L1191.88 -29.4842L1167.24 -7.43349L1134.93 -5.89691L1127.72 -14.0648L1120.42 -22.3277L1120.72 -11.307L1121.81 28.2787L1089.63 62.0001H1048.37L1016.19 28.2787L1017.28 -11.307Z" fill="#F3B744" stroke="white" stroke-width="8"/>
<path d="M1066.36 433.008L1069 435.318L1071.64 433.008L1195.81 324.194L1197.05 323.103L1197.16 321.452L1199.99 279.071L1200.12 277.124L1198.67 275.823L1171.51 251.525L1170.46 250.577L1169.04 250.51L1133.4 248.815L1131.48 248.724L1130.21 250.162L1129.02 251.506L1129.85 221.275L1129.9 219.61L1128.75 218.404L1094.24 182.239L1093.06 181H1091.35H1046.65H1044.94L1043.76 182.239L1009.25 218.404L1008.1 219.61L1008.15 221.275L1008.98 251.506L1007.79 250.162L1006.52 248.724L1004.6 248.815L968.964 250.51L967.545 250.577L966.486 251.525L939.333 275.823L937.879 277.124L938.009 279.071L940.837 321.452L940.948 323.103L942.192 324.194L1066.36 433.008Z" fill="#F3B744" stroke="#222A69" stroke-width="8"/>
<path d="M1189.29 319.268L1069 424.681L948.709 319.268L946.121 280.484L970.763 258.434L1003.07 256.897L1010.28 265.065L1017.58 273.328L1017.28 262.307L1016.19 222.721L1048.37 189H1089.63L1121.81 222.721L1120.72 262.307L1120.42 273.328L1127.72 265.065L1134.93 256.897L1167.24 258.434L1191.88 280.484L1189.29 319.268Z" fill="#F3B744" stroke="white" stroke-width="8"/>
<path d="M761.992 122.364L759.682 125L761.992 127.636L870.806 251.808L871.897 253.052L873.548 253.163L915.929 255.991L917.876 256.121L919.177 254.667L943.475 227.514L944.423 226.455L944.49 225.036L946.185 189.397L946.276 187.48L944.838 186.209L943.494 185.022L973.725 185.852L975.39 185.897L976.596 184.747L1012.76 150.239L1014 149.057V147.345V102.655V100.943L1012.76 99.7608L976.596 65.253L975.39 64.1028L973.725 64.1485L943.494 64.9776L944.838 63.7908L946.276 62.5201L946.185 60.6028L944.49 24.9636L944.423 23.5448L943.475 22.4863L919.177 -4.66739L917.876 -6.12103L915.929 -5.99112L873.548 -3.1626L871.897 -3.0524L870.806 -1.80774L761.992 122.364Z" fill="#3688BB" stroke="#222A69" stroke-width="8"/>
<path d="M875.732 245.291L770.319 125L875.732 4.70944L914.516 2.12103L936.566 26.7625L938.103 59.0657L929.935 66.2805L921.672 73.5792L932.693 73.2769L972.279 72.1912L1006 104.367V145.633L972.279 177.809L932.693 176.723L921.672 176.421L929.935 183.72L938.103 190.934L936.566 223.237L914.516 247.879L875.732 245.291Z" fill="#3688BB" stroke="white" stroke-width="8"/>
<path d="M1377.01 127.636L1379.32 125L1377.01 122.364L1268.19 -1.80776L1267.1 -3.05241L1265.45 -3.16261L1223.07 -5.99112L1221.12 -6.12102L1219.82 -4.66738L1195.52 22.4863L1194.58 23.5448L1194.51 24.9636L1192.81 60.6028L1192.72 62.5201L1194.16 63.7908L1195.51 64.9776L1165.28 64.1485L1163.61 64.1028L1162.4 65.253L1126.24 99.7608L1125 100.943V102.655V147.345V149.057L1126.24 150.239L1162.4 184.747L1163.61 185.897L1165.28 185.851L1195.51 185.022L1194.16 186.209L1192.72 187.48L1192.81 189.397L1194.51 225.036L1194.58 226.455L1195.52 227.514L1219.82 254.667L1221.12 256.121L1223.07 255.991L1265.45 253.163L1267.1 253.052L1268.19 251.808L1377.01 127.636Z" fill="#3688BB" stroke="#222A69" stroke-width="8"/>
<path d="M1263.27 4.70943L1368.68 125L1263.27 245.291L1224.48 247.879L1202.43 223.237L1200.9 190.934L1209.06 183.72L1217.33 176.421L1206.31 176.723L1166.72 177.809L1133 145.633V104.367L1166.72 72.1912L1206.31 73.2769L1217.33 73.5792L1209.06 66.2805L1200.9 59.0657L1202.43 26.7625L1224.48 2.12102L1263.27 4.70943Z" fill="#3688BB" stroke="white" stroke-width="8"/>
<path d="M1416.36 83.0079L1419 85.3181L1421.64 83.0079L1545.81 -25.806L1547.05 -26.8967L1547.16 -28.5479L1549.99 -70.9294L1550.12 -72.8758L1548.67 -74.1766L1521.51 -98.4753L1520.46 -99.4225L1519.04 -99.49L1483.4 -101.185L1481.48 -101.276L1480.21 -99.8379L1479.02 -98.4942L1479.85 -128.725L1479.9 -130.39L1478.75 -131.596L1444.24 -167.761L1443.06 -169H1441.35H1396.65H1394.94L1393.76 -167.761L1359.25 -131.596L1358.1 -130.39L1358.15 -128.725L1358.98 -98.4942L1357.79 -99.8379L1356.52 -101.276L1354.6 -101.185L1318.96 -99.49L1317.54 -99.4225L1316.49 -98.4753L1289.33 -74.1766L1287.88 -72.8758L1288.01 -70.9294L1290.84 -28.5479L1290.95 -26.8967L1292.19 -25.806L1416.36 83.0079Z" fill="#F3B744" stroke="#222A69" stroke-width="8"/>
<path d="M1539.29 -30.7318L1419 74.6811L1298.71 -30.7318L1296.12 -69.5157L1320.76 -91.5664L1353.07 -93.103L1360.28 -84.9351L1367.58 -76.6722L1367.28 -87.6928L1366.19 -127.279L1398.37 -161H1439.63L1471.81 -127.279L1470.72 -87.6928L1470.42 -76.6722L1477.72 -84.9351L1484.93 -93.103L1517.24 -91.5664L1541.88 -69.5157L1539.29 -30.7318Z" fill="#F3B744" stroke="white" stroke-width="8"/>
<path d="M1421.64 167.992L1419 165.682L1416.36 167.992L1292.19 276.806L1290.95 277.897L1290.84 279.548L1288.01 321.929L1287.88 323.876L1289.33 325.177L1316.49 349.475L1317.54 350.423L1318.96 350.49L1354.6 352.185L1356.52 352.276L1357.79 350.838L1358.98 349.494L1358.15 379.725L1358.1 381.39L1359.25 382.596L1393.76 418.761L1394.94 420H1396.65H1441.35H1443.06L1444.24 418.761L1478.75 382.596L1479.9 381.39L1479.85 379.725L1479.02 349.494L1480.21 350.838L1481.48 352.276L1483.4 352.185L1519.04 350.49L1520.46 350.423L1521.51 349.475L1548.67 325.177L1550.12 323.876L1549.99 321.929L1547.16 279.548L1547.05 277.897L1545.81 276.806L1421.64 167.992Z" fill="#F3B744" stroke="#222A69" stroke-width="8"/>
<path d="M1367.28 338.693L1367.58 327.672L1360.28 335.935L1353.07 344.103L1320.76 342.567L1296.12 320.516L1298.71 281.732L1419 176.319L1539.29 281.732L1541.88 320.516L1517.24 342.567L1484.93 344.103L1477.72 335.935L1470.42 327.672L1470.72 338.693L1471.81 378.279L1439.63 412H1398.37L1366.19 378.279L1367.28 338.693Z" fill="#F3B744" stroke="white" stroke-width="8"/>
<path d="M1111.99 472.364L1109.68 475L1111.99 477.636L1220.81 601.808L1221.9 603.052L1223.55 603.163L1265.93 605.991L1267.88 606.121L1269.18 604.667L1293.48 577.514L1294.42 576.455L1294.49 575.036L1296.19 539.397L1296.28 537.48L1294.84 536.209L1293.49 535.022L1323.72 535.852L1325.39 535.897L1326.6 534.747L1362.76 500.239L1364 499.057V497.345V452.655V450.943L1362.76 449.761L1326.6 415.253L1325.39 414.103L1323.72 414.149L1293.49 414.978L1294.84 413.791L1296.28 412.52L1296.19 410.603L1294.49 374.964L1294.42 373.545L1293.48 372.486L1269.18 345.333L1267.88 343.879L1265.93 344.009L1223.55 346.837L1221.9 346.948L1220.81 348.192L1111.99 472.364Z" fill="#3688BB" stroke="#222A69" stroke-width="8"/>
<path d="M1225.73 595.291L1120.32 475L1225.73 354.709L1264.52 352.121L1286.57 376.763L1288.1 409.066L1279.94 416.28L1271.67 423.579L1282.69 423.277L1322.28 422.191L1356 454.367V495.633L1322.28 527.809L1282.69 526.723L1271.67 526.421L1279.94 533.72L1288.1 540.934L1286.57 573.237L1264.52 597.879L1225.73 595.291Z" fill="#3688BB" stroke="white" stroke-width="8"/>
<path d="M721.636 167.992L719 165.682L716.364 167.992L592.192 276.806L590.948 277.897L590.837 279.548L588.009 321.929L587.879 323.876L589.333 325.177L616.486 349.475L617.545 350.423L618.964 350.49L654.603 352.185L656.52 352.276L657.791 350.838L658.978 349.494L658.148 379.725L658.103 381.39L659.253 382.596L693.761 418.761L694.943 420H696.655H741.345H743.057L744.239 418.761L778.747 382.596L779.897 381.39L779.851 379.725L779.022 349.494L780.209 350.838L781.48 352.276L783.397 352.185L819.036 350.49L820.455 350.423L821.514 349.475L848.667 325.177L850.121 323.876L849.991 321.929L847.163 279.548L847.052 277.897L845.808 276.806L721.636 167.992Z" fill="#F3B744" stroke="#222A69" stroke-width="8"/>
<path d="M667.277 338.693L667.579 327.672L660.28 335.935L653.066 344.103L620.763 342.567L596.121 320.516L598.709 281.732L719 176.319L839.291 281.732L841.879 320.516L817.237 342.567L784.934 344.103L777.72 335.935L770.421 327.672L770.723 338.693L771.809 378.279L739.633 412H698.367L666.191 378.279L667.277 338.693Z" fill="#F3B744" stroke="white" stroke-width="8"/>
<path d="M1027.01 477.636L1029.32 475L1027.01 472.364L918.194 348.192L917.103 346.948L915.452 346.837L873.071 344.009L871.124 343.879L869.823 345.333L845.525 372.486L844.577 373.545L844.51 374.964L842.815 410.603L842.724 412.52L844.162 413.791L845.506 414.978L815.275 414.148L813.61 414.103L812.404 415.253L776.239 449.761L775 450.943V452.655V497.345V499.057L776.239 500.239L812.404 534.747L813.61 535.897L815.275 535.851L845.506 535.022L844.162 536.209L842.724 537.48L842.815 539.397L844.51 575.036L844.577 576.455L845.525 577.514L869.823 604.667L871.124 606.121L873.071 605.991L915.452 603.163L917.103 603.052L918.194 601.808L1027.01 477.636Z" fill="#3688BB" stroke="#222A69" stroke-width="8"/>
<path d="M913.268 354.709L1018.68 475L913.268 595.291L874.484 597.879L852.434 573.237L850.897 540.934L859.065 533.72L867.328 526.421L856.307 526.723L816.721 527.809L783 495.633V454.367L816.721 422.191L856.307 423.277L867.328 423.579L859.065 416.28L850.897 409.066L852.434 376.763L874.484 352.121L913.268 354.709Z" fill="#3688BB" stroke="white" stroke-width="8"/>
<path d="M716.364 83.0079L719 85.3181L721.636 83.0079L845.808 -25.806L847.052 -26.8967L847.163 -28.5479L849.991 -70.9294L850.121 -72.8758L848.667 -74.1766L821.514 -98.4753L820.455 -99.4225L819.036 -99.49L783.397 -101.185L781.48 -101.276L780.209 -99.8379L779.022 -98.4942L779.852 -128.725L779.897 -130.39L778.747 -131.596L744.239 -167.761L743.057 -169H741.345H696.655H694.943L693.761 -167.761L659.253 -131.596L658.103 -130.39L658.149 -128.725L658.978 -98.4942L657.791 -99.8379L656.52 -101.276L654.603 -101.185L618.964 -99.49L617.545 -99.4225L616.486 -98.4753L589.333 -74.1766L587.879 -72.8758L588.009 -70.9294L590.837 -28.5479L590.948 -26.8967L592.192 -25.806L716.364 83.0079Z" fill="#F3B744" stroke="#222A69" stroke-width="8"/>
<path d="M839.291 -30.7318L719 74.6811L598.709 -30.7318L596.121 -69.5157L620.763 -91.5664L653.066 -93.103L660.28 -84.9351L667.579 -76.6722L667.277 -87.6928L666.191 -127.279L698.367 -161H739.633L771.809 -127.279L770.723 -87.6928L770.421 -76.6722L777.72 -84.9351L784.934 -93.103L817.237 -91.5664L841.879 -69.5157L839.291 -30.7318Z" fill="#F3B744" stroke="white" stroke-width="8"/>
</g>
<g clip-path="url(#clip3_242_8063)">
<path d="M1421.64 167.992L1419 165.682L1416.36 167.992L1292.19 276.806L1290.95 277.897L1290.84 279.548L1288.01 321.929L1287.88 323.876L1289.33 325.177L1316.49 349.475L1317.54 350.423L1318.96 350.49L1354.6 352.185L1356.52 352.276L1357.79 350.838L1358.98 349.494L1358.15 379.725L1358.1 381.39L1359.25 382.596L1393.76 418.761L1394.94 420H1396.65H1441.35H1443.06L1444.24 418.761L1478.75 382.596L1479.9 381.39L1479.85 379.725L1479.02 349.494L1480.21 350.838L1481.48 352.276L1483.4 352.185L1519.04 350.49L1520.46 350.423L1521.51 349.475L1548.67 325.177L1550.12 323.876L1549.99 321.929L1547.16 279.548L1547.05 277.897L1545.81 276.806L1421.64 167.992Z" fill="#F3B744" stroke="#222A69" stroke-width="8"/>
<path d="M1367.28 338.693L1367.58 327.672L1360.28 335.935L1353.07 344.103L1320.76 342.567L1296.12 320.516L1298.71 281.732L1419 176.319L1539.29 281.732L1541.88 320.516L1517.24 342.567L1484.93 344.103L1477.72 335.935L1470.42 327.672L1470.72 338.693L1471.81 378.279L1439.63 412H1398.37L1366.19 378.279L1367.28 338.693Z" fill="#F3B744" stroke="white" stroke-width="8"/>
<path d="M1416.36 83.0079L1419 85.3181L1421.64 83.0079L1545.81 -25.806L1547.05 -26.8967L1547.16 -28.5479L1549.99 -70.9294L1550.12 -72.8758L1548.67 -74.1766L1521.51 -98.4753L1520.46 -99.4225L1519.04 -99.49L1483.4 -101.185L1481.48 -101.276L1480.21 -99.8379L1479.02 -98.4942L1479.85 -128.725L1479.9 -130.39L1478.75 -131.596L1444.24 -167.761L1443.06 -169H1441.35H1396.65H1394.94L1393.76 -167.761L1359.25 -131.596L1358.1 -130.39L1358.15 -128.725L1358.98 -98.4942L1357.79 -99.8379L1356.52 -101.276L1354.6 -101.185L1318.96 -99.49L1317.54 -99.4225L1316.49 -98.4753L1289.33 -74.1766L1287.88 -72.8758L1288.01 -70.9294L1290.84 -28.5479L1290.95 -26.8967L1292.19 -25.806L1416.36 83.0079Z" fill="#F3B744" stroke="#222A69" stroke-width="8"/>
<path d="M1539.29 -30.7318L1419 74.6811L1298.71 -30.7318L1296.12 -69.5157L1320.76 -91.5664L1353.07 -93.103L1360.28 -84.9351L1367.58 -76.6722L1367.28 -87.6928L1366.19 -127.279L1398.37 -161H1439.63L1471.81 -127.279L1470.72 -87.6928L1470.42 -76.6722L1477.72 -84.9351L1484.93 -93.103L1517.24 -91.5664L1541.88 -69.5157L1539.29 -30.7318Z" fill="#F3B744" stroke="white" stroke-width="8"/>
</g>
<g clip-path="url(#clip4_242_8063)">
<path d="M16.3637 783.008L19 785.318L21.6363 783.008L145.808 674.194L147.052 673.103L147.163 671.452L149.991 629.071L150.121 627.124L148.667 625.823L121.514 601.525L120.455 600.577L119.036 600.51L83.3972 598.815L81.4799 598.724L80.2092 600.162L79.0224 601.506L79.8515 571.275L79.8972 569.61L78.747 568.404L44.2392 532.239L43.0573 531H41.3452H-3.34521H-5.0573L-6.2392 532.239L-40.747 568.404L-41.8972 569.61L-41.8515 571.275L-41.0224 601.506L-42.2092 600.162L-43.4799 598.724L-45.3972 598.815L-81.0364 600.51L-82.4552 600.577L-83.5137 601.525L-110.667 625.823L-112.121 627.124L-111.991 629.071L-109.163 671.452L-109.052 673.103L-107.808 674.194L16.3637 783.008Z" fill="#F3B744" stroke="#222A69" stroke-width="8"/>
<path d="M139.291 669.268L19 774.681L-101.291 669.268L-103.879 630.484L-79.2375 608.434L-46.9343 606.897L-39.7195 615.065L-32.4208 623.328L-32.7231 612.307L-33.8088 572.721L-1.63313 539H39.6331L71.8088 572.721L70.7231 612.307L70.4208 623.328L77.7195 615.065L84.9343 606.897L117.237 608.434L141.879 630.484L139.291 669.268Z" fill="#F3B744" stroke="white" stroke-width="8"/>
<path d="M21.6363 867.992L19 865.682L16.3637 867.992L-107.808 976.806L-109.052 977.897L-109.163 979.548L-111.991 1021.93L-112.121 1023.88L-110.667 1025.18L-83.5137 1049.48L-82.4552 1050.42L-81.0364 1050.49L-45.3972 1052.19L-43.4799 1052.28L-42.2092 1050.84L-41.0224 1049.49L-41.8515 1079.72L-41.8972 1081.39L-40.747 1082.6L-6.23919 1118.76L-5.05729 1120H-3.34521H41.3452H43.0573L44.2392 1118.76L78.747 1082.6L79.8972 1081.39L79.8515 1079.72L79.0224 1049.49L80.2092 1050.84L81.4799 1052.28L83.3972 1052.19L119.036 1050.49L120.455 1050.42L121.514 1049.48L148.667 1025.18L150.121 1023.88L149.991 1021.93L147.163 979.548L147.052 977.897L145.808 976.806L21.6363 867.992Z" fill="#F3B744" stroke="#222A69" stroke-width="8"/>
<path d="M-32.7231 1038.69L-32.4208 1027.67L-39.7195 1035.94L-46.9343 1044.1L-79.2374 1042.57L-103.879 1020.52L-101.291 981.732L19 876.319L139.291 981.732L141.879 1020.52L117.237 1042.57L84.9343 1044.1L77.7195 1035.94L70.4209 1027.67L70.7231 1038.69L71.8088 1078.28L39.6331 1112H-1.63314L-33.8088 1078.28L-32.7231 1038.69Z" fill="#F3B744" stroke="white" stroke-width="8"/>
</g>
<g clip-path="url(#clip5_242_8063)">
<path d="M371.636 517.992L369 515.682L366.364 517.992L242.192 626.806L240.948 627.897L240.837 629.548L238.009 671.929L237.879 673.876L239.333 675.177L266.486 699.475L267.545 700.423L268.964 700.49L304.603 702.185L306.52 702.276L307.791 700.838L308.978 699.494L308.148 729.725L308.103 731.39L309.253 732.596L343.761 768.761L344.943 770H346.655H391.345H393.057L394.239 768.761L428.747 732.596L429.897 731.39L429.851 729.725L429.022 699.494L430.209 700.838L431.48 702.276L433.397 702.185L469.036 700.49L470.455 700.423L471.514 699.475L498.667 675.177L500.121 673.876L499.991 671.929L497.163 629.548L497.052 627.897L495.808 626.806L371.636 517.992Z" fill="#F3B744" stroke="#222A69" stroke-width="8"/>
<path d="M317.277 688.693L317.579 677.672L310.28 685.935L303.066 694.103L270.763 692.567L246.121 670.516L248.709 631.732L369 526.319L489.291 631.732L491.879 670.516L467.237 692.567L434.934 694.103L427.72 685.935L420.421 677.672L420.723 688.693L421.809 728.279L389.633 762H348.367L316.191 728.279L317.277 688.693Z" fill="#F3B744" stroke="white" stroke-width="8"/>
<path d="M366.364 1133.01L369 1135.32L371.636 1133.01L495.808 1024.19L497.052 1023.1L497.163 1021.45L499.991 979.071L500.121 977.124L498.667 975.823L471.514 951.525L470.455 950.577L469.036 950.51L433.397 948.815L431.48 948.724L430.209 950.162L429.022 951.506L429.852 921.275L429.897 919.61L428.747 918.404L394.239 882.239L393.057 881H391.345H346.655H344.943L343.761 882.239L309.253 918.404L308.103 919.61L308.149 921.275L308.978 951.506L307.791 950.162L306.52 948.724L304.603 948.815L268.964 950.51L267.545 950.577L266.486 951.525L239.333 975.823L237.879 977.124L238.009 979.071L240.837 1021.45L240.948 1023.1L242.192 1024.19L366.364 1133.01Z" fill="#F3B744" stroke="#222A69" stroke-width="8"/>
<path d="M489.291 1019.27L369 1124.68L248.709 1019.27L246.121 980.484L270.763 958.434L303.066 956.897L310.28 965.065L317.579 973.328L317.277 962.307L316.191 922.721L348.367 889H389.633L421.809 922.721L420.723 962.307L420.421 973.328L427.72 965.065L434.934 956.897L467.237 958.434L491.879 980.484L489.291 1019.27Z" fill="#F3B744" stroke="white" stroke-width="8"/>
<path d="M61.9921 822.364L59.6819 825L61.9921 827.636L170.806 951.808L171.897 953.052L173.548 953.163L215.929 955.991L217.876 956.121L219.177 954.667L243.475 927.514L244.423 926.455L244.49 925.036L246.185 889.397L246.276 887.48L244.838 886.209L243.494 885.022L273.725 885.852L275.39 885.897L276.596 884.747L312.761 850.239L314 849.057V847.345V802.655V800.943L312.761 799.761L276.596 765.253L275.39 764.103L273.725 764.149L243.494 764.978L244.838 763.791L246.276 762.52L246.185 760.603L244.49 724.964L244.423 723.545L243.475 722.486L219.177 695.333L217.876 693.879L215.929 694.009L173.548 696.837L171.897 696.948L170.806 698.192L61.9921 822.364Z" fill="#3688BB" stroke="#222A69" stroke-width="8"/>
<path d="M175.732 945.291L70.3189 825L175.732 704.709L214.516 702.121L236.566 726.763L238.103 759.066L229.935 766.28L221.672 773.579L232.693 773.277L272.279 772.191L306 804.367V845.633L272.279 877.809L232.693 876.723L221.672 876.421L229.935 883.72L238.103 890.934L236.566 923.237L214.516 947.879L175.732 945.291Z" fill="#3688BB" stroke="white" stroke-width="8"/>
<path d="M677.008 827.636L679.318 825L677.008 822.364L568.194 698.192L567.103 696.948L565.452 696.837L523.071 694.009L521.124 693.879L519.823 695.333L495.525 722.486L494.577 723.545L494.51 724.964L492.815 760.603L492.724 762.52L494.162 763.791L495.506 764.978L465.275 764.148L463.61 764.103L462.404 765.253L426.239 799.761L425 800.943V802.655V847.345V849.057L426.239 850.239L462.404 884.747L463.61 885.897L465.275 885.851L495.506 885.022L494.162 886.209L492.724 887.48L492.815 889.397L494.51 925.036L494.577 926.455L495.525 927.514L519.823 954.667L521.124 956.121L523.071 955.991L565.452 953.163L567.103 953.052L568.194 951.808L677.008 827.636Z" fill="#3688BB" stroke="#222A69" stroke-width="8"/>
<path d="M563.268 704.709L668.681 825L563.268 945.291L524.484 947.879L502.434 923.237L500.897 890.934L509.065 883.72L517.328 876.421L506.307 876.723L466.721 877.809L433 845.633V804.367L466.721 772.191L506.307 773.277L517.328 773.579L509.065 766.28L500.897 759.066L502.434 726.763L524.484 702.121L563.268 704.709Z" fill="#3688BB" stroke="white" stroke-width="8"/>
<path d="M716.364 783.008L719 785.318L721.636 783.008L845.808 674.194L847.052 673.103L847.163 671.452L849.991 629.071L850.121 627.124L848.667 625.823L821.514 601.525L820.455 600.577L819.036 600.51L783.397 598.815L781.48 598.724L780.209 600.162L779.022 601.506L779.852 571.275L779.897 569.61L778.747 568.404L744.239 532.239L743.057 531H741.345H696.655H694.943L693.761 532.239L659.253 568.404L658.103 569.61L658.149 571.275L658.978 601.506L657.791 600.162L656.52 598.724L654.603 598.815L618.964 600.51L617.545 600.577L616.486 601.525L589.333 625.823L587.879 627.124L588.009 629.071L590.837 671.452L590.948 673.103L592.192 674.194L716.364 783.008Z" fill="#F3B744" stroke="#222A69" stroke-width="8"/>
<path d="M839.291 669.268L719 774.681L598.709 669.268L596.121 630.484L620.763 608.434L653.066 606.897L660.28 615.065L667.579 623.328L667.277 612.307L666.191 572.721L698.367 539H739.633L771.809 572.721L770.723 612.307L770.421 623.328L777.72 615.065L784.934 606.897L817.237 608.434L841.879 630.484L839.291 669.268Z" fill="#F3B744" stroke="white" stroke-width="8"/>
<path d="M411.992 472.364L409.682 475L411.992 477.636L520.806 601.808L521.897 603.052L523.548 603.163L565.929 605.991L567.876 606.121L569.177 604.667L593.475 577.514L594.423 576.455L594.49 575.036L596.185 539.397L596.276 537.48L594.838 536.209L593.494 535.022L623.725 535.852L625.39 535.897L626.596 534.747L662.761 500.239L664 499.057V497.345V452.655V450.943L662.761 449.761L626.596 415.253L625.39 414.103L623.725 414.149L593.494 414.978L594.838 413.791L596.276 412.52L596.185 410.603L594.49 374.964L594.423 373.545L593.475 372.486L569.177 345.333L567.876 343.879L565.929 344.009L523.548 346.837L521.897 346.948L520.806 348.192L411.992 472.364Z" fill="#3688BB" stroke="#222A69" stroke-width="8"/>
<path d="M525.732 595.291L420.319 475L525.732 354.709L564.516 352.121L586.566 376.763L588.103 409.066L579.935 416.28L571.672 423.579L582.693 423.277L622.279 422.191L656 454.367V495.633L622.279 527.809L582.693 526.723L571.672 526.421L579.935 533.72L588.103 540.934L586.566 573.237L564.516 597.879L525.732 595.291Z" fill="#3688BB" stroke="white" stroke-width="8"/>
<path d="M721.636 867.992L719 865.682L716.364 867.992L592.192 976.806L590.948 977.897L590.837 979.548L588.009 1021.93L587.879 1023.88L589.333 1025.18L616.486 1049.48L617.545 1050.42L618.964 1050.49L654.603 1052.19L656.52 1052.28L657.791 1050.84L658.978 1049.49L658.148 1079.72L658.103 1081.39L659.253 1082.6L693.761 1118.76L694.943 1120H696.655H741.345H743.057L744.239 1118.76L778.747 1082.6L779.897 1081.39L779.851 1079.72L779.022 1049.49L780.209 1050.84L781.48 1052.28L783.397 1052.19L819.036 1050.49L820.455 1050.42L821.514 1049.48L848.667 1025.18L850.121 1023.88L849.991 1021.93L847.163 979.548L847.052 977.897L845.808 976.806L721.636 867.992Z" fill="#F3B744" stroke="#222A69" stroke-width="8"/>
<path d="M667.277 1038.69L667.579 1027.67L660.28 1035.94L653.066 1044.1L620.763 1042.57L596.121 1020.52L598.709 981.732L719 876.319L839.291 981.732L841.879 1020.52L817.237 1042.57L784.934 1044.1L777.72 1035.94L770.421 1027.67L770.723 1038.69L771.809 1078.28L739.633 1112H698.367L666.191 1078.28L667.277 1038.69Z" fill="#F3B744" stroke="white" stroke-width="8"/>
<path d="M411.992 1172.36L409.682 1175L411.992 1177.64L520.806 1301.81L521.897 1303.05L523.548 1303.16L565.929 1305.99L567.876 1306.12L569.177 1304.67L593.475 1277.51L594.423 1276.46L594.49 1275.04L596.185 1239.4L596.276 1237.48L594.838 1236.21L593.494 1235.02L623.725 1235.85L625.39 1235.9L626.596 1234.75L662.761 1200.24L664 1199.06V1197.35V1152.65V1150.94L662.761 1149.76L626.596 1115.25L625.39 1114.1L623.725 1114.15L593.494 1114.98L594.838 1113.79L596.276 1112.52L596.185 1110.6L594.49 1074.96L594.423 1073.54L593.475 1072.49L569.177 1045.33L567.876 1043.88L565.929 1044.01L523.548 1046.84L521.897 1046.95L520.806 1048.19L411.992 1172.36Z" fill="#3688BB" stroke="#222A69" stroke-width="8"/>
<path d="M525.732 1295.29L420.319 1175L525.732 1054.71L564.516 1052.12L586.566 1076.76L588.103 1109.07L579.935 1116.28L571.672 1123.58L582.693 1123.28L622.279 1122.19L656 1154.37V1195.63L622.279 1227.81L582.693 1226.72L571.672 1226.42L579.935 1233.72L588.103 1240.93L586.566 1273.24L564.516 1297.88L525.732 1295.29Z" fill="#3688BB" stroke="white" stroke-width="8"/>
<path d="M21.6363 867.992L19 865.682L16.3637 867.992L-107.808 976.806L-109.052 977.897L-109.163 979.548L-111.991 1021.93L-112.121 1023.88L-110.667 1025.18L-83.5137 1049.48L-82.4552 1050.42L-81.0364 1050.49L-45.3972 1052.19L-43.4799 1052.28L-42.2092 1050.84L-41.0224 1049.49L-41.8515 1079.72L-41.8972 1081.39L-40.747 1082.6L-6.23919 1118.76L-5.05729 1120H-3.34521H41.3452H43.0573L44.2392 1118.76L78.747 1082.6L79.8972 1081.39L79.8515 1079.72L79.0224 1049.49L80.2092 1050.84L81.4799 1052.28L83.3972 1052.19L119.036 1050.49L120.455 1050.42L121.514 1049.48L148.667 1025.18L150.121 1023.88L149.991 1021.93L147.163 979.548L147.052 977.897L145.808 976.806L21.6363 867.992Z" fill="#F3B744" stroke="#222A69" stroke-width="8"/>
<path d="M-32.7231 1038.69L-32.4208 1027.67L-39.7195 1035.94L-46.9343 1044.1L-79.2374 1042.57L-103.879 1020.52L-101.291 981.732L19 876.319L139.291 981.732L141.879 1020.52L117.237 1042.57L84.9343 1044.1L77.7195 1035.94L70.4209 1027.67L70.7231 1038.69L71.8088 1078.28L39.6331 1112H-1.63314L-33.8088 1078.28L-32.7231 1038.69Z" fill="#F3B744" stroke="white" stroke-width="8"/>
<path d="M327.008 1177.64L329.318 1175L327.008 1172.36L218.194 1048.19L217.103 1046.95L215.452 1046.84L173.071 1044.01L171.124 1043.88L169.823 1045.33L145.525 1072.49L144.577 1073.54L144.51 1074.96L142.815 1110.6L142.724 1112.52L144.162 1113.79L145.506 1114.98L115.275 1114.15L113.61 1114.1L112.404 1115.25L76.2385 1149.76L74.9999 1150.94V1152.65V1197.35V1199.06L76.2385 1200.24L112.404 1234.75L113.61 1235.9L115.275 1235.85L145.506 1235.02L144.162 1236.21L142.724 1237.48L142.815 1239.4L144.51 1275.04L144.577 1276.46L145.525 1277.51L169.823 1304.67L171.124 1306.12L173.071 1305.99L215.452 1303.16L217.103 1303.05L218.194 1301.81L327.008 1177.64Z" fill="#3688BB" stroke="#222A69" stroke-width="8"/>
<path d="M213.268 1054.71L318.681 1175L213.268 1295.29L174.484 1297.88L152.434 1273.24L150.897 1240.93L159.065 1233.72L167.328 1226.42L156.307 1226.72L116.721 1227.81L83 1195.63V1154.37L116.721 1122.19L156.307 1123.28L167.328 1123.58L159.065 1116.28L150.897 1109.07L152.434 1076.76L174.484 1052.12L213.268 1054.71Z" fill="#3688BB" stroke="white" stroke-width="8"/>
<path d="M16.3637 783.008L19 785.318L21.6363 783.008L145.808 674.194L147.052 673.103L147.163 671.452L149.991 629.071L150.121 627.124L148.667 625.823L121.514 601.525L120.455 600.577L119.036 600.51L83.3972 598.815L81.4799 598.724L80.2092 600.162L79.0224 601.506L79.8515 571.275L79.8972 569.61L78.747 568.404L44.2392 532.239L43.0573 531H41.3452H-3.34521H-5.0573L-6.2392 532.239L-40.747 568.404L-41.8972 569.61L-41.8515 571.275L-41.0224 601.506L-42.2092 600.162L-43.4799 598.724L-45.3972 598.815L-81.0364 600.51L-82.4552 600.577L-83.5137 601.525L-110.667 625.823L-112.121 627.124L-111.991 629.071L-109.163 671.452L-109.052 673.103L-107.808 674.194L16.3637 783.008Z" fill="#F3B744" stroke="#222A69" stroke-width="8"/>
<path d="M139.291 669.268L19 774.681L-101.291 669.268L-103.879 630.484L-79.2375 608.434L-46.9343 606.897L-39.7195 615.065L-32.4208 623.328L-32.7231 612.307L-33.8088 572.721L-1.63313 539H39.6331L71.8088 572.721L70.7231 612.307L70.4208 623.328L77.7195 615.065L84.9343 606.897L117.237 608.434L141.879 630.484L139.291 669.268Z" fill="#F3B744" stroke="white" stroke-width="8"/>
<path d="M327.008 477.636L329.318 475L327.008 472.364L218.194 348.192L217.103 346.948L215.452 346.837L173.071 344.009L171.124 343.879L169.823 345.333L145.525 372.486L144.577 373.545L144.51 374.964L142.815 410.603L142.724 412.52L144.162 413.791L145.506 414.978L115.275 414.148L113.61 414.103L112.404 415.253L76.2385 449.761L74.9999 450.943V452.655V497.345V499.057L76.2385 500.239L112.404 534.747L113.61 535.897L115.275 535.851L145.506 535.022L144.162 536.209L142.724 537.48L142.815 539.397L144.51 575.036L144.577 576.455L145.525 577.514L169.823 604.667L171.124 606.121L173.071 605.991L215.452 603.163L217.103 603.052L218.194 601.808L327.008 477.636Z" fill="#3688BB" stroke="#222A69" stroke-width="8"/>
<path d="M213.268 354.709L318.681 475L213.268 595.291L174.484 597.879L152.434 573.237L150.897 540.934L159.065 533.72L167.328 526.421L156.307 526.723L116.721 527.809L83 495.633V454.367L116.721 422.191L156.307 423.277L167.328 423.579L159.065 416.28L150.897 409.066L152.434 376.763L174.484 352.121L213.268 354.709Z" fill="#3688BB" stroke="white" stroke-width="8"/>
</g>
<g clip-path="url(#clip6_242_8063)">
<path d="M1071.64 517.992L1069 515.682L1066.36 517.992L942.192 626.806L940.948 627.897L940.837 629.548L938.009 671.929L937.879 673.876L939.333 675.177L966.486 699.475L967.545 700.423L968.964 700.49L1004.6 702.185L1006.52 702.276L1007.79 700.838L1008.98 699.494L1008.15 729.725L1008.1 731.39L1009.25 732.596L1043.76 768.761L1044.94 770H1046.65H1091.35H1093.06L1094.24 768.761L1128.75 732.596L1129.9 731.39L1129.85 729.725L1129.02 699.494L1130.21 700.838L1131.48 702.276L1133.4 702.185L1169.04 700.49L1170.46 700.423L1171.51 699.475L1198.67 675.177L1200.12 673.876L1199.99 671.929L1197.16 629.548L1197.05 627.897L1195.81 626.806L1071.64 517.992Z" fill="#F3B744" stroke="#222A69" stroke-width="8"/>
<path d="M1017.28 688.693L1017.58 677.672L1010.28 685.935L1003.07 694.103L970.763 692.567L946.121 670.516L948.709 631.732L1069 526.319L1189.29 631.732L1191.88 670.516L1167.24 692.567L1134.93 694.103L1127.72 685.935L1120.42 677.672L1120.72 688.693L1121.81 728.279L1089.63 762H1048.37L1016.19 728.279L1017.28 688.693Z" fill="#F3B744" stroke="white" stroke-width="8"/>
<path d="M1066.36 1133.01L1069 1135.32L1071.64 1133.01L1195.81 1024.19L1197.05 1023.1L1197.16 1021.45L1199.99 979.071L1200.12 977.124L1198.67 975.823L1171.51 951.525L1170.46 950.577L1169.04 950.51L1133.4 948.815L1131.48 948.724L1130.21 950.162L1129.02 951.506L1129.85 921.275L1129.9 919.61L1128.75 918.404L1094.24 882.239L1093.06 881H1091.35H1046.65H1044.94L1043.76 882.239L1009.25 918.404L1008.1 919.61L1008.15 921.275L1008.98 951.506L1007.79 950.162L1006.52 948.724L1004.6 948.815L968.964 950.51L967.545 950.577L966.486 951.525L939.333 975.823L937.879 977.124L938.009 979.071L940.837 1021.45L940.948 1023.1L942.192 1024.19L1066.36 1133.01Z" fill="#F3B744" stroke="#222A69" stroke-width="8"/>
<path d="M1189.29 1019.27L1069 1124.68L948.709 1019.27L946.121 980.484L970.763 958.434L1003.07 956.897L1010.28 965.065L1017.58 973.328L1017.28 962.307L1016.19 922.721L1048.37 889H1089.63L1121.81 922.721L1120.72 962.307L1120.42 973.328L1127.72 965.065L1134.93 956.897L1167.24 958.434L1191.88 980.484L1189.29 1019.27Z" fill="#F3B744" stroke="white" stroke-width="8"/>
<path d="M761.992 822.364L759.682 825L761.992 827.636L870.806 951.808L871.897 953.052L873.548 953.163L915.929 955.991L917.876 956.121L919.177 954.667L943.475 927.514L944.423 926.455L944.49 925.036L946.185 889.397L946.276 887.48L944.838 886.209L943.494 885.022L973.725 885.852L975.39 885.897L976.596 884.747L1012.76 850.239L1014 849.057V847.345V802.655V800.943L1012.76 799.761L976.596 765.253L975.39 764.103L973.725 764.149L943.494 764.978L944.838 763.791L946.276 762.52L946.185 760.603L944.49 724.964L944.423 723.545L943.475 722.486L919.177 695.333L917.876 693.879L915.929 694.009L873.548 696.837L871.897 696.948L870.806 698.192L761.992 822.364Z" fill="#3688BB" stroke="#222A69" stroke-width="8"/>
<path d="M875.732 945.291L770.319 825L875.732 704.709L914.516 702.121L936.566 726.763L938.103 759.066L929.935 766.28L921.672 773.579L932.693 773.277L972.279 772.191L1006 804.367V845.633L972.279 877.809L932.693 876.723L921.672 876.421L929.935 883.72L938.103 890.934L936.566 923.237L914.516 947.879L875.732 945.291Z" fill="#3688BB" stroke="white" stroke-width="8"/>
<path d="M1377.01 827.636L1379.32 825L1377.01 822.364L1268.19 698.192L1267.1 696.948L1265.45 696.837L1223.07 694.009L1221.12 693.879L1219.82 695.333L1195.52 722.486L1194.58 723.545L1194.51 724.964L1192.81 760.603L1192.72 762.52L1194.16 763.791L1195.51 764.978L1165.28 764.148L1163.61 764.103L1162.4 765.253L1126.24 799.761L1125 800.943V802.655V847.345V849.057L1126.24 850.239L1162.4 884.747L1163.61 885.897L1165.28 885.851L1195.51 885.022L1194.16 886.209L1192.72 887.48L1192.81 889.397L1194.51 925.036L1194.58 926.455L1195.52 927.514L1219.82 954.667L1221.12 956.121L1223.07 955.991L1265.45 953.163L1267.1 953.052L1268.19 951.808L1377.01 827.636Z" fill="#3688BB" stroke="#222A69" stroke-width="8"/>
<path d="M1263.27 704.709L1368.68 825L1263.27 945.291L1224.48 947.879L1202.43 923.237L1200.9 890.934L1209.06 883.72L1217.33 876.421L1206.31 876.723L1166.72 877.809L1133 845.633V804.367L1166.72 772.191L1206.31 773.277L1217.33 773.579L1209.06 766.28L1200.9 759.066L1202.43 726.763L1224.48 702.121L1263.27 704.709Z" fill="#3688BB" stroke="white" stroke-width="8"/>
<path d="M1416.36 783.008L1419 785.318L1421.64 783.008L1545.81 674.194L1547.05 673.103L1547.16 671.452L1549.99 629.071L1550.12 627.124L1548.67 625.823L1521.51 601.525L1520.46 600.577L1519.04 600.51L1483.4 598.815L1481.48 598.724L1480.21 600.162L1479.02 601.506L1479.85 571.275L1479.9 569.61L1478.75 568.404L1444.24 532.239L1443.06 531H1441.35H1396.65H1394.94L1393.76 532.239L1359.25 568.404L1358.1 569.61L1358.15 571.275L1358.98 601.506L1357.79 600.162L1356.52 598.724L1354.6 598.815L1318.96 600.51L1317.54 600.577L1316.49 601.525L1289.33 625.823L1287.88 627.124L1288.01 629.071L1290.84 671.452L1290.95 673.103L1292.19 674.194L1416.36 783.008Z" fill="#F3B744" stroke="#222A69" stroke-width="8"/>
<path d="M1539.29 669.268L1419 774.681L1298.71 669.268L1296.12 630.484L1320.76 608.434L1353.07 606.897L1360.28 615.065L1367.58 623.328L1367.28 612.307L1366.19 572.721L1398.37 539H1439.63L1471.81 572.721L1470.72 612.307L1470.42 623.328L1477.72 615.065L1484.93 606.897L1517.24 608.434L1541.88 630.484L1539.29 669.268Z" fill="#F3B744" stroke="white" stroke-width="8"/>
<path d="M1111.99 472.364L1109.68 475L1111.99 477.636L1220.81 601.808L1221.9 603.052L1223.55 603.163L1265.93 605.991L1267.88 606.121L1269.18 604.667L1293.48 577.514L1294.42 576.455L1294.49 575.036L1296.19 539.397L1296.28 537.48L1294.84 536.209L1293.49 535.022L1323.72 535.852L1325.39 535.897L1326.6 534.747L1362.76 500.239L1364 499.057V497.345V452.655V450.943L1362.76 449.761L1326.6 415.253L1325.39 414.103L1323.72 414.149L1293.49 414.978L1294.84 413.791L1296.28 412.52L1296.19 410.603L1294.49 374.964L1294.42 373.545L1293.48 372.486L1269.18 345.333L1267.88 343.879L1265.93 344.009L1223.55 346.837L1221.9 346.948L1220.81 348.192L1111.99 472.364Z" fill="#3688BB" stroke="#222A69" stroke-width="8"/>
<path d="M1225.73 595.291L1120.32 475L1225.73 354.709L1264.52 352.121L1286.57 376.763L1288.1 409.066L1279.94 416.28L1271.67 423.579L1282.69 423.277L1322.28 422.191L1356 454.367V495.633L1322.28 527.809L1282.69 526.723L1271.67 526.421L1279.94 533.72L1288.1 540.934L1286.57 573.237L1264.52 597.879L1225.73 595.291Z" fill="#3688BB" stroke="white" stroke-width="8"/>
<path d="M1421.64 867.992L1419 865.682L1416.36 867.992L1292.19 976.806L1290.95 977.897L1290.84 979.548L1288.01 1021.93L1287.88 1023.88L1289.33 1025.18L1316.49 1049.48L1317.54 1050.42L1318.96 1050.49L1354.6 1052.19L1356.52 1052.28L1357.79 1050.84L1358.98 1049.49L1358.15 1079.72L1358.1 1081.39L1359.25 1082.6L1393.76 1118.76L1394.94 1120H1396.65H1441.35H1443.06L1444.24 1118.76L1478.75 1082.6L1479.9 1081.39L1479.85 1079.72L1479.02 1049.49L1480.21 1050.84L1481.48 1052.28L1483.4 1052.19L1519.04 1050.49L1520.46 1050.42L1521.51 1049.48L1548.67 1025.18L1550.12 1023.88L1549.99 1021.93L1547.16 979.548L1547.05 977.897L1545.81 976.806L1421.64 867.992Z" fill="#F3B744" stroke="#222A69" stroke-width="8"/>
<path d="M1367.28 1038.69L1367.58 1027.67L1360.28 1035.94L1353.07 1044.1L1320.76 1042.57L1296.12 1020.52L1298.71 981.732L1419 876.319L1539.29 981.732L1541.88 1020.52L1517.24 1042.57L1484.93 1044.1L1477.72 1035.94L1470.42 1027.67L1470.72 1038.69L1471.81 1078.28L1439.63 1112H1398.37L1366.19 1078.28L1367.28 1038.69Z" fill="#F3B744" stroke="white" stroke-width="8"/>
<path d="M1111.99 1172.36L1109.68 1175L1111.99 1177.64L1220.81 1301.81L1221.9 1303.05L1223.55 1303.16L1265.93 1305.99L1267.88 1306.12L1269.18 1304.67L1293.48 1277.51L1294.42 1276.46L1294.49 1275.04L1296.19 1239.4L1296.28 1237.48L1294.84 1236.21L1293.49 1235.02L1323.72 1235.85L1325.39 1235.9L1326.6 1234.75L1362.76 1200.24L1364 1199.06V1197.35V1152.65V1150.94L1362.76 1149.76L1326.6 1115.25L1325.39 1114.1L1323.72 1114.15L1293.49 1114.98L1294.84 1113.79L1296.28 1112.52L1296.19 1110.6L1294.49 1074.96L1294.42 1073.54L1293.48 1072.49L1269.18 1045.33L1267.88 1043.88L1265.93 1044.01L1223.55 1046.84L1221.9 1046.95L1220.81 1048.19L1111.99 1172.36Z" fill="#3688BB" stroke="#222A69" stroke-width="8"/>
<path d="M1225.73 1295.29L1120.32 1175L1225.73 1054.71L1264.52 1052.12L1286.57 1076.76L1288.1 1109.07L1279.94 1116.28L1271.67 1123.58L1282.69 1123.28L1322.28 1122.19L1356 1154.37V1195.63L1322.28 1227.81L1282.69 1226.72L1271.67 1226.42L1279.94 1233.72L1288.1 1240.93L1286.57 1273.24L1264.52 1297.88L1225.73 1295.29Z" fill="#3688BB" stroke="white" stroke-width="8"/>
<path d="M721.636 867.992L719 865.682L716.364 867.992L592.192 976.806L590.948 977.897L590.837 979.548L588.009 1021.93L587.879 1023.88L589.333 1025.18L616.486 1049.48L617.545 1050.42L618.964 1050.49L654.603 1052.19L656.52 1052.28L657.791 1050.84L658.978 1049.49L658.148 1079.72L658.103 1081.39L659.253 1082.6L693.761 1118.76L694.943 1120H696.655H741.345H743.057L744.239 1118.76L778.747 1082.6L779.897 1081.39L779.851 1079.72L779.022 1049.49L780.209 1050.84L781.48 1052.28L783.397 1052.19L819.036 1050.49L820.455 1050.42L821.514 1049.48L848.667 1025.18L850.121 1023.88L849.991 1021.93L847.163 979.548L847.052 977.897L845.808 976.806L721.636 867.992Z" fill="#F3B744" stroke="#222A69" stroke-width="8"/>
<path d="M667.277 1038.69L667.579 1027.67L660.28 1035.94L653.066 1044.1L620.763 1042.57L596.121 1020.52L598.709 981.732L719 876.319L839.291 981.732L841.879 1020.52L817.237 1042.57L784.934 1044.1L777.72 1035.94L770.421 1027.67L770.723 1038.69L771.809 1078.28L739.633 1112H698.367L666.191 1078.28L667.277 1038.69Z" fill="#F3B744" stroke="white" stroke-width="8"/>
<path d="M1027.01 1177.64L1029.32 1175L1027.01 1172.36L918.194 1048.19L917.103 1046.95L915.452 1046.84L873.071 1044.01L871.124 1043.88L869.823 1045.33L845.525 1072.49L844.577 1073.54L844.51 1074.96L842.815 1110.6L842.724 1112.52L844.162 1113.79L845.506 1114.98L815.275 1114.15L813.61 1114.1L812.404 1115.25L776.239 1149.76L775 1150.94V1152.65V1197.35V1199.06L776.239 1200.24L812.404 1234.75L813.61 1235.9L815.275 1235.85L845.506 1235.02L844.162 1236.21L842.724 1237.48L842.815 1239.4L844.51 1275.04L844.577 1276.46L845.525 1277.51L869.823 1304.67L871.124 1306.12L873.071 1305.99L915.452 1303.16L917.103 1303.05L918.194 1301.81L1027.01 1177.64Z" fill="#3688BB" stroke="#222A69" stroke-width="8"/>
<path d="M913.268 1054.71L1018.68 1175L913.268 1295.29L874.484 1297.88L852.434 1273.24L850.897 1240.93L859.065 1233.72L867.328 1226.42L856.307 1226.72L816.721 1227.81L783 1195.63V1154.37L816.721 1122.19L856.307 1123.28L867.328 1123.58L859.065 1116.28L850.897 1109.07L852.434 1076.76L874.484 1052.12L913.268 1054.71Z" fill="#3688BB" stroke="white" stroke-width="8"/>
<path d="M716.364 783.008L719 785.318L721.636 783.008L845.808 674.194L847.052 673.103L847.163 671.452L849.991 629.071L850.121 627.124L848.667 625.823L821.514 601.525L820.455 600.577L819.036 600.51L783.397 598.815L781.48 598.724L780.209 600.162L779.022 601.506L779.852 571.275L779.897 569.61L778.747 568.404L744.239 532.239L743.057 531H741.345H696.655H694.943L693.761 532.239L659.253 568.404L658.103 569.61L658.149 571.275L658.978 601.506L657.791 600.162L656.52 598.724L654.603 598.815L618.964 600.51L617.545 600.577L616.486 601.525L589.333 625.823L587.879 627.124L588.009 629.071L590.837 671.452L590.948 673.103L592.192 674.194L716.364 783.008Z" fill="#F3B744" stroke="#222A69" stroke-width="8"/>
<path d="M839.291 669.268L719 774.681L598.709 669.268L596.121 630.484L620.763 608.434L653.066 606.897L660.28 615.065L667.579 623.328L667.277 612.307L666.191 572.721L698.367 539H739.633L771.809 572.721L770.723 612.307L770.421 623.328L777.72 615.065L784.934 606.897L817.237 608.434L841.879 630.484L839.291 669.268Z" fill="#F3B744" stroke="white" stroke-width="8"/>
<path d="M1027.01 477.636L1029.32 475L1027.01 472.364L918.194 348.192L917.103 346.948L915.452 346.837L873.071 344.009L871.124 343.879L869.823 345.333L845.525 372.486L844.577 373.545L844.51 374.964L842.815 410.603L842.724 412.52L844.162 413.791L845.506 414.978L815.275 414.148L813.61 414.103L812.404 415.253L776.239 449.761L775 450.943V452.655V497.345V499.057L776.239 500.239L812.404 534.747L813.61 535.897L815.275 535.851L845.506 535.022L844.162 536.209L842.724 537.48L842.815 539.397L844.51 575.036L844.577 576.455L845.525 577.514L869.823 604.667L871.124 606.121L873.071 605.991L915.452 603.163L917.103 603.052L918.194 601.808L1027.01 477.636Z" fill="#3688BB" stroke="#222A69" stroke-width="8"/>
<path d="M913.268 354.709L1018.68 475L913.268 595.291L874.484 597.879L852.434 573.237L850.897 540.934L859.065 533.72L867.328 526.421L856.307 526.723L816.721 527.809L783 495.633V454.367L816.721 422.191L856.307 423.277L867.328 423.579L859.065 416.28L850.897 409.066L852.434 376.763L874.484 352.121L913.268 354.709Z" fill="#3688BB" stroke="white" stroke-width="8"/>
</g>
<g clip-path="url(#clip7_242_8063)">
<path d="M1421.64 867.992L1419 865.682L1416.36 867.992L1292.19 976.806L1290.95 977.897L1290.84 979.548L1288.01 1021.93L1287.88 1023.88L1289.33 1025.18L1316.49 1049.48L1317.54 1050.42L1318.96 1050.49L1354.6 1052.19L1356.52 1052.28L1357.79 1050.84L1358.98 1049.49L1358.15 1079.72L1358.1 1081.39L1359.25 1082.6L1393.76 1118.76L1394.94 1120H1396.65H1441.35H1443.06L1444.24 1118.76L1478.75 1082.6L1479.9 1081.39L1479.85 1079.72L1479.02 1049.49L1480.21 1050.84L1481.48 1052.28L1483.4 1052.19L1519.04 1050.49L1520.46 1050.42L1521.51 1049.48L1548.67 1025.18L1550.12 1023.88L1549.99 1021.93L1547.16 979.548L1547.05 977.897L1545.81 976.806L1421.64 867.992Z" fill="#F3B744" stroke="#222A69" stroke-width="8"/>
<path d="M1367.28 1038.69L1367.58 1027.67L1360.28 1035.94L1353.07 1044.1L1320.76 1042.57L1296.12 1020.52L1298.71 981.732L1419 876.319L1539.29 981.732L1541.88 1020.52L1517.24 1042.57L1484.93 1044.1L1477.72 1035.94L1470.42 1027.67L1470.72 1038.69L1471.81 1078.28L1439.63 1112H1398.37L1366.19 1078.28L1367.28 1038.69Z" fill="#F3B744" stroke="white" stroke-width="8"/>
<path d="M1416.36 783.008L1419 785.318L1421.64 783.008L1545.81 674.194L1547.05 673.103L1547.16 671.452L1549.99 629.071L1550.12 627.124L1548.67 625.823L1521.51 601.525L1520.46 600.577L1519.04 600.51L1483.4 598.815L1481.48 598.724L1480.21 600.162L1479.02 601.506L1479.85 571.275L1479.9 569.61L1478.75 568.404L1444.24 532.239L1443.06 531H1441.35H1396.65H1394.94L1393.76 532.239L1359.25 568.404L1358.1 569.61L1358.15 571.275L1358.98 601.506L1357.79 600.162L1356.52 598.724L1354.6 598.815L1318.96 600.51L1317.54 600.577L1316.49 601.525L1289.33 625.823L1287.88 627.124L1288.01 629.071L1290.84 671.452L1290.95 673.103L1292.19 674.194L1416.36 783.008Z" fill="#F3B744" stroke="#222A69" stroke-width="8"/>
<path d="M1539.29 669.268L1419 774.681L1298.71 669.268L1296.12 630.484L1320.76 608.434L1353.07 606.897L1360.28 615.065L1367.58 623.328L1367.28 612.307L1366.19 572.721L1398.37 539H1439.63L1471.81 572.721L1470.72 612.307L1470.42 623.328L1477.72 615.065L1484.93 606.897L1517.24 608.434L1541.88 630.484L1539.29 669.268Z" fill="#F3B744" stroke="white" stroke-width="8"/>
</g>
<defs>
<clipPath id="clip0_242_8063">
<rect width="700" height="700" fill="white" transform="translate(-680 -225)"/>
</clipPath>
<clipPath id="clip1_242_8063">
<rect width="700" height="700" fill="white" transform="translate(20 -225)"/>
</clipPath>
<clipPath id="clip2_242_8063">
<rect width="700" height="700" fill="white" transform="translate(720 -225)"/>
</clipPath>
<clipPath id="clip3_242_8063">
<rect width="700" height="700" fill="white" transform="translate(1420 -225)"/>
</clipPath>
<clipPath id="clip4_242_8063">
<rect width="700" height="700" fill="white" transform="translate(-680 475)"/>
</clipPath>
<clipPath id="clip5_242_8063">
<rect width="700" height="700" fill="white" transform="translate(20 475)"/>
</clipPath>
<clipPath id="clip6_242_8063">
<rect width="700" height="700" fill="white" transform="translate(720 475)"/>
</clipPath>
<clipPath id="clip7_242_8063">
<rect width="700" height="700" fill="white" transform="translate(1420 475)"/>
</clipPath>
</defs>
</svg>
