<svg width="168" height="164" viewBox="0 0 168 164" fill="none" xmlns="http://www.w3.org/2000/svg">
<path d="M81.3637 155.693L84 158.003L86.6363 155.693L159.966 91.4328L161.211 90.3421L161.321 88.6908L162.991 63.6624L163.121 61.716L161.667 60.4152L145.632 46.0656L144.573 45.1184L143.154 45.0509L122.108 44.0497L121.174 44.0053L121.573 29.467L121.619 27.8015L120.469 26.596L100.09 5.23842L98.9081 3.99974H97.196H70.804H69.0919L67.91 5.23842L47.5314 26.596L46.3812 27.8015L46.4269 29.467L46.8256 44.0054L45.8923 44.0497L24.8456 45.0509L23.4267 45.1184L22.3682 46.0656L6.33261 60.4152L4.87898 61.716L5.00888 63.6624L6.67926 88.6908L6.78946 90.3421L8.03412 91.4328L81.3637 155.693Z" fill="#3688BB" stroke="#222A69" stroke-width="8"/>
<path d="M84 147.366L14.5513 86.5071L13.121 65.0763L26.6445 52.9746L44.3552 52.1322L48.0956 56.3667L55.3943 64.6296L55.092 53.6089L54.4696 30.9135L72.5161 12H95.4839L113.53 30.9135L112.908 53.6089L112.606 64.6296L119.904 56.3667L123.645 52.1322L141.355 52.9746L154.879 65.0763L153.449 86.5071L84 147.366Z" fill="#3688BB" stroke="white" stroke-width="8"/>
</svg>
