<svg width="30" height="31" viewBox="0 0 30 31" fill="none" xmlns="http://www.w3.org/2000/svg">
<path fill-rule="evenodd" clip-rule="evenodd" d="M15 30.6851C23.2843 30.6851 30 23.9693 30 15.6851C30 7.40079 23.2843 0.685059 15 0.685059C6.71573 0.685059 0 7.40079 0 15.6851C0 23.9693 6.71573 30.6851 15 30.6851ZM16.5 8.99994C16.5 8.17151 15.8284 7.49994 15 7.49994C14.1716 7.49994 13.5 8.17151 13.5 8.99994V15.8749C13.5 16.3921 13.7664 16.8728 14.205 17.1469L19.205 20.2719C19.9075 20.711 20.8329 20.4974 21.272 19.7949C21.7111 19.0924 21.4975 18.167 20.795 17.7279L16.5 15.0436V8.99994Z" fill="#3688BB"/>
</svg>
