<svg width="23" height="32" viewBox="0 0 23 32" fill="none" xmlns="http://www.w3.org/2000/svg">
<path fill-rule="evenodd" clip-rule="evenodd" d="M11.5 0.685059C7.69995 0.685059 0.499979 4.28506 0.5 12.2851C0.5 16.6851 7.1 26.2851 11.3 30.6851C15.5 26.2851 22.5 16.6851 22.5 12.2851C22.5 4.28506 15.1 0.685059 11.5 0.685059ZM11.5 15.8851C14.0405 15.8851 16.1 13.8256 16.1 11.2851C16.1 8.74455 14.0405 6.68506 11.5 6.68506C8.9595 6.68506 6.90001 8.74455 6.90001 11.2851C6.90001 13.8256 8.9595 15.8851 11.5 15.8851Z" fill="#222A69"/>
<path d="M0.5 12.2851H1V12.2851L0.5 12.2851ZM11.3 30.6851L10.9383 31.0303C11.0327 31.1291 11.1634 31.1851 11.3 31.1851C11.4366 31.1851 11.5673 31.1291 11.6617 31.0303L11.3 30.6851ZM22.5 12.2851H23H22.5ZM1 12.2851C0.99999 8.45315 2.71802 5.68736 4.89548 3.86882C7.09023 2.03584 9.72914 1.18506 11.5 1.18506V0.185059C9.47081 0.185059 6.60971 1.13428 4.25447 3.10129C1.88193 5.08276 -1.10269e-05 8.11696 0 12.2851L1 12.2851ZM11.6617 30.3398C9.58901 28.1685 6.9095 24.6967 4.74968 21.2212C3.67043 19.4844 2.72749 17.7572 2.05603 16.1996C1.37919 14.6296 1 13.2809 1 12.2851H0C0 13.4893 0.445815 14.9905 1.13772 16.5955C1.83501 18.213 2.80458 19.9857 3.90032 21.749C6.0905 25.2734 8.81099 28.8017 10.9383 31.0303L11.6617 30.3398ZM22 12.2851C22 13.2749 21.5998 14.6198 20.8855 16.1906C20.1774 17.7478 19.1851 19.4751 18.0558 21.2126C15.7964 24.6886 13.0154 28.1639 10.9383 30.3398L11.6617 31.0303C13.7846 28.8062 16.6036 25.2815 18.8942 21.7576C20.0399 19.995 21.0601 18.2223 21.7958 16.6045C22.5252 15.0003 23 13.4952 23 12.2851H22ZM11.5 1.18506C13.1682 1.18506 15.8084 2.03402 18.0315 3.87054C20.2364 5.69192 22 8.45813 22 12.2851H23C23 8.11199 21.0636 5.0782 18.6684 3.09958C16.2916 1.13609 13.4318 0.185059 11.5 0.185059V1.18506ZM15.6 11.2851C15.6 13.5494 13.7644 15.3851 11.5 15.3851V16.3851C14.3167 16.3851 16.6 14.1017 16.6 11.2851H15.6ZM11.5 7.18506C13.7644 7.18506 15.6 9.02069 15.6 11.2851H16.6C16.6 8.46841 14.3167 6.18506 11.5 6.18506V7.18506ZM7.40001 11.2851C7.40001 9.02069 9.23564 7.18506 11.5 7.18506V6.18506C8.68335 6.18506 6.40001 8.46841 6.40001 11.2851H7.40001ZM11.5 15.3851C9.23564 15.3851 7.40001 13.5494 7.40001 11.2851H6.40001C6.40001 14.1017 8.68335 16.3851 11.5 16.3851V15.3851Z" fill="#222A69"/>
</svg>
