<svg width="30" height="31" viewBox="0 0 30 31" fill="none" xmlns="http://www.w3.org/2000/svg">
<path fill-rule="evenodd" clip-rule="evenodd" d="M15 30.6851C23.2843 30.6851 30 23.9693 30 15.6851C30 7.40079 23.2843 0.685059 15 0.685059C6.71573 0.685059 0 7.40079 0 15.6851C0 23.9693 6.71573 30.6851 15 30.6851ZM10.125 6.92809C12.375 5.80309 13.5 8.80311 12.75 11.4281C12.125 11.6781 10.8 12.4781 10.5 13.6781C10.125 15.1781 13.875 20.4281 16.5 20.0531C17.75 19.8031 18.375 18.9281 18.75 18.1781C21.75 18.5531 23.2832 19.4407 22.125 21.1781C20.625 23.4281 18.7014 24.4589 15.75 23.8031C12.375 23.0531 6.75 16.3031 6.75 12.9281C6.75 9.55309 7.875 8.05309 10.125 6.92809Z" fill="#222A69"/>
</svg>
