<svg width="167" height="27" viewBox="0 0 167 27" fill="none" xmlns="http://www.w3.org/2000/svg">
<path d="M6.48184 26L0.00684348 1.5H4.80184L9.21184 20.995L14.3918 1.5H19.3268L24.3668 20.995L28.7768 1.5H33.6068L26.9568 26H21.6368L16.7718 7.835L11.7668 26H6.48184ZM43.3379 26.42C41.5879 26.42 40.0363 26.0467 38.6829 25.3C37.3296 24.5533 36.2679 23.5033 35.4979 22.15C34.7279 20.7967 34.3429 19.2333 34.3429 17.46C34.3429 15.6633 34.7163 14.065 35.4629 12.665C36.2329 11.265 37.2829 10.18 38.6129 9.41C39.9663 8.61667 41.5529 8.22 43.3729 8.22C45.0763 8.22 46.5813 8.59333 47.8879 9.34C49.1946 10.0867 50.2096 11.1133 50.9329 12.42C51.6796 13.7033 52.0529 15.1383 52.0529 16.725C52.0529 16.9817 52.0413 17.25 52.0179 17.53C52.0179 17.81 52.0063 18.1017 51.9829 18.405H38.7879C38.8813 19.7583 39.3479 20.82 40.1879 21.59C41.0513 22.36 42.0896 22.745 43.3029 22.745C44.2129 22.745 44.9713 22.5467 45.5779 22.15C46.2079 21.73 46.6746 21.1933 46.9779 20.54H51.5279C51.2013 21.6367 50.6529 22.64 49.8829 23.55C49.1363 24.4367 48.2029 25.1367 47.0829 25.65C45.9863 26.1633 44.7379 26.42 43.3379 26.42ZM43.3729 11.86C42.2763 11.86 41.3079 12.175 40.4679 12.805C39.6279 13.4117 39.0913 14.345 38.8579 15.605H47.5029C47.4329 14.4617 47.0129 13.5517 46.2429 12.875C45.4729 12.1983 44.5163 11.86 43.3729 11.86ZM55.8209 26V0.800002H60.3009V26H55.8209ZM73.3835 26.42C71.6102 26.42 70.0468 26.035 68.6935 25.265C67.3402 24.495 66.2668 23.4217 65.4735 22.045C64.7035 20.6683 64.3185 19.0933 64.3185 17.32C64.3185 15.5467 64.7035 13.9717 65.4735 12.595C66.2668 11.2183 67.3402 10.145 68.6935 9.375C70.0468 8.605 71.6102 8.22 73.3835 8.22C75.6002 8.22 77.4668 8.80333 78.9835 9.97C80.5002 11.1133 81.4685 12.7 81.8885 14.73H77.1635C76.9302 13.89 76.4635 13.2367 75.7635 12.77C75.0868 12.28 74.2818 12.035 73.3485 12.035C72.1118 12.035 71.0618 12.5017 70.1985 13.435C69.3352 14.3683 68.9035 15.6633 68.9035 17.32C68.9035 18.9767 69.3352 20.2717 70.1985 21.205C71.0618 22.1383 72.1118 22.605 73.3485 22.605C74.2818 22.605 75.0868 22.3717 75.7635 21.905C76.4635 21.4383 76.9302 20.7733 77.1635 19.91H81.8885C81.4685 21.87 80.5002 23.445 78.9835 24.635C77.4668 25.825 75.6002 26.42 73.3835 26.42ZM94.1948 26.42C92.5148 26.42 90.9982 26.035 89.6448 25.265C88.3148 24.495 87.2532 23.4333 86.4598 22.08C85.6898 20.7033 85.3048 19.1167 85.3048 17.32C85.3048 15.5233 85.7015 13.9483 86.4948 12.595C87.2882 11.2183 88.3498 10.145 89.6798 9.375C91.0332 8.605 92.5498 8.22 94.2298 8.22C95.8865 8.22 97.3798 8.605 98.7098 9.375C100.063 10.145 101.125 11.2183 101.895 12.595C102.688 13.9483 103.085 15.5233 103.085 17.32C103.085 19.1167 102.688 20.7033 101.895 22.08C101.125 23.4333 100.063 24.495 98.7098 25.265C97.3565 26.035 95.8515 26.42 94.1948 26.42ZM94.1948 22.535C95.3615 22.535 96.3765 22.1033 97.2398 21.24C98.1032 20.3533 98.5348 19.0467 98.5348 17.32C98.5348 15.5933 98.1032 14.2983 97.2398 13.435C96.3765 12.5483 95.3732 12.105 94.2298 12.105C93.0398 12.105 92.0132 12.5483 91.1498 13.435C90.3098 14.2983 89.8898 15.5933 89.8898 17.32C89.8898 19.0467 90.3098 20.3533 91.1498 21.24C92.0132 22.1033 93.0282 22.535 94.1948 22.535ZM107.09 26V8.64H111.045L111.43 10.985C111.99 10.145 112.725 9.48 113.635 8.99C114.569 8.47667 115.642 8.22 116.855 8.22C119.539 8.22 121.44 9.25833 122.56 11.335C123.19 10.3783 124.03 9.62 125.08 9.06C126.154 8.5 127.32 8.22 128.58 8.22C130.844 8.22 132.582 8.89667 133.795 10.25C135.009 11.6033 135.615 13.5867 135.615 16.2V26H131.135V16.62C131.135 15.1267 130.844 13.9833 130.26 13.19C129.7 12.3967 128.825 12 127.635 12C126.422 12 125.442 12.4433 124.695 13.33C123.972 14.2167 123.61 15.4533 123.61 17.04V26H119.13V16.62C119.13 15.1267 118.839 13.9833 118.255 13.19C117.672 12.3967 116.774 12 115.56 12C114.37 12 113.402 12.4433 112.655 13.33C111.932 14.2167 111.57 15.4533 111.57 17.04V26H107.09ZM148.304 26.42C146.554 26.42 145.002 26.0467 143.649 25.3C142.295 24.5533 141.234 23.5033 140.464 22.15C139.694 20.7967 139.309 19.2333 139.309 17.46C139.309 15.6633 139.682 14.065 140.429 12.665C141.199 11.265 142.249 10.18 143.579 9.41C144.932 8.61667 146.519 8.22 148.339 8.22C150.042 8.22 151.547 8.59333 152.854 9.34C154.16 10.0867 155.175 11.1133 155.899 12.42C156.645 13.7033 157.019 15.1383 157.019 16.725C157.019 16.9817 157.007 17.25 156.984 17.53C156.984 17.81 156.972 18.1017 156.949 18.405H143.754C143.847 19.7583 144.314 20.82 145.154 21.59C146.017 22.36 147.055 22.745 148.269 22.745C149.179 22.745 149.937 22.5467 150.544 22.15C151.174 21.73 151.64 21.1933 151.944 20.54H156.494C156.167 21.6367 155.619 22.64 154.849 23.55C154.102 24.4367 153.169 25.1367 152.049 25.65C150.952 26.1633 149.704 26.42 148.304 26.42ZM148.339 11.86C147.242 11.86 146.274 12.175 145.434 12.805C144.594 13.4117 144.057 14.345 143.824 15.605H152.469C152.399 14.4617 151.979 13.5517 151.209 12.875C150.439 12.1983 149.482 11.86 148.339 11.86ZM161.732 18.265L161.242 1.5H166.037L165.512 18.265H161.732ZM163.727 26.245C162.887 26.245 162.198 25.9883 161.662 25.475C161.148 24.9617 160.892 24.3433 160.892 23.62C160.892 22.8733 161.148 22.2433 161.662 21.73C162.198 21.2167 162.887 20.96 163.727 20.96C164.52 20.96 165.173 21.2167 165.687 21.73C166.223 22.2433 166.492 22.8733 166.492 23.62C166.492 24.3433 166.223 24.9617 165.687 25.475C165.173 25.9883 164.52 26.245 163.727 26.245Z" fill="#3688BB"/>
<path d="M6.48184 26L4.45155 26.5366L4.86474 28.1H6.48184V26ZM0.00684345 1.5V-0.599998H-2.72026L-2.02345 2.03658L0.00684345 1.5ZM4.80184 1.5L6.85009 1.03666L6.47986 -0.599998H4.80184V1.5ZM9.21184 20.995L7.1636 21.4583L11.2414 21.5343L9.21184 20.995ZM14.3918 1.5V-0.599998H12.777L12.3623 0.960724L14.3918 1.5ZM19.3268 1.5L21.36 0.974374L20.953 -0.599998H19.3268V1.5ZM24.3668 20.995L22.3337 21.5206L26.4151 21.4583L24.3668 20.995ZM28.7768 1.5V-0.599998H27.0988L26.7286 1.03666L28.7768 1.5ZM33.6068 1.5L35.6335 2.0501L36.3528 -0.599998H33.6068V1.5ZM26.9568 26V28.1H28.5628L28.9835 26.5501L26.9568 26ZM21.6368 26L19.6083 26.5433L20.0253 28.1H21.6368V26ZM16.7718 7.835L18.8004 7.29172L16.8006 -0.175022L14.7473 7.27717L16.7718 7.835ZM11.7668 26V28.1H13.3665L13.7914 26.5578L11.7668 26ZM8.51213 25.4634L2.03714 0.963424L-2.02345 2.03658L4.45155 26.5366L8.51213 25.4634ZM0.00684345 3.6H4.80184V-0.599998H0.00684345V3.6ZM2.7536 1.96334L7.1636 21.4583L11.2601 20.5317L6.85009 1.03666L2.7536 1.96334ZM11.2414 21.5343L16.4214 2.03928L12.3623 0.960724L7.18227 20.4557L11.2414 21.5343ZM14.3918 3.6H19.3268V-0.599998H14.3918V3.6ZM17.2937 2.02563L22.3337 21.5206L26.4 20.4694L21.36 0.974374L17.2937 2.02563ZM26.4151 21.4583L30.8251 1.96334L26.7286 1.03666L22.3186 20.5317L26.4151 21.4583ZM28.7768 3.6H33.6068V-0.599998H28.7768V3.6ZM31.5802 0.949904L24.9302 25.4499L28.9835 26.5501L35.6335 2.0501L31.5802 0.949904ZM26.9568 23.9H21.6368V28.1H26.9568V23.9ZM23.6653 25.4567L18.8004 7.29172L14.7433 8.37828L19.6083 26.5433L23.6653 25.4567ZM14.7473 7.27717L9.74229 25.4422L13.7914 26.5578L18.7964 8.39283L14.7473 7.27717ZM11.7668 23.9H6.48184V28.1H11.7668V23.9ZM38.6829 25.3L39.6974 23.4613L38.6829 25.3ZM35.4629 12.665L33.6229 11.653L33.6164 11.6648L33.61 11.6768L35.4629 12.665ZM38.6129 9.41L39.6651 11.2274L39.6749 11.2217L38.6129 9.41ZM47.8879 9.34L46.846 11.1633L46.846 11.1633L47.8879 9.34ZM50.9329 12.42L49.0957 13.4371L49.1065 13.4567L49.1178 13.4761L50.9329 12.42ZM52.0179 17.53L49.9252 17.3556L49.9179 17.4427V17.53H52.0179ZM51.9829 18.405V20.505H53.9276L54.0767 18.5661L51.9829 18.405ZM38.7879 18.405V16.305H36.5381L36.6929 18.5495L38.7879 18.405ZM40.1879 21.59L38.7689 23.138L38.7795 23.1477L38.7901 23.1572L40.1879 21.59ZM45.5779 22.15L46.7272 23.9076L46.735 23.9025L46.7428 23.8973L45.5779 22.15ZM46.9779 20.54V18.44H45.6376L45.0732 19.6557L46.9779 20.54ZM51.5279 20.54L53.5405 21.1395L54.3447 18.44H51.5279V20.54ZM49.8829 23.55L48.2798 22.1935L48.2766 22.1973L49.8829 23.55ZM47.0829 25.65L46.208 23.741L46.2003 23.7445L46.1927 23.7481L47.0829 25.65ZM40.4679 12.805L41.6975 14.5074L41.7128 14.4964L41.7279 14.485L40.4679 12.805ZM38.8579 15.605L36.793 15.2226L36.3333 17.705H38.8579V15.605ZM47.5029 15.605V17.705H49.7354L49.599 15.4767L47.5029 15.605ZM46.2429 12.875L47.6292 11.2976L46.2429 12.875ZM43.3379 24.32C41.8951 24.32 40.7009 24.0149 39.6974 23.4613L37.6685 27.1387C39.3716 28.0784 41.2807 28.52 43.3379 28.52V24.32ZM39.6974 23.4613C38.6855 22.903 37.9033 22.1311 37.3232 21.1115L33.6727 23.1885C34.6326 24.8756 35.9737 26.2037 37.6685 27.1387L39.6974 23.4613ZM37.3232 21.1115C36.7571 20.1165 36.4429 18.9206 36.4429 17.46H32.2429C32.2429 19.5461 32.6988 21.4768 33.6727 23.1885L37.3232 21.1115ZM36.4429 17.46C36.4429 15.9619 36.7518 14.7108 37.3159 13.6532L33.61 11.6768C32.6807 13.4192 32.2429 15.3648 32.2429 17.46H36.4429ZM37.303 13.677C37.8963 12.5983 38.6797 11.7979 39.6651 11.2274L37.5608 7.59261C35.8862 8.5621 34.5696 9.93169 33.6229 11.653L37.303 13.677ZM39.6749 11.2217C40.6577 10.6456 41.8657 10.32 43.3729 10.32V6.12C41.2402 6.12 39.2748 6.58776 37.5509 7.59834L39.6749 11.2217ZM43.3729 10.32C44.7598 10.32 45.8967 10.6208 46.846 11.1633L48.9298 7.51669C47.2658 6.56584 45.3927 6.12 43.3729 6.12V10.32ZM46.846 11.1633C47.8214 11.7207 48.5601 12.4696 49.0957 13.4371L52.7702 11.4029C51.8591 9.75704 50.5677 8.45265 48.9298 7.51669L46.846 11.1633ZM49.1178 13.4761C49.6651 14.4167 49.9529 15.483 49.9529 16.725H54.1529C54.1529 14.7937 53.6941 12.99 52.7481 11.3639L49.1178 13.4761ZM49.9529 16.725C49.9529 16.9183 49.9441 17.1282 49.9252 17.3556L54.1107 17.7044C54.1384 17.3718 54.1529 17.045 54.1529 16.725H49.9529ZM49.9179 17.53C49.9179 17.7519 49.9087 17.9897 49.8891 18.2439L54.0767 18.5661C54.1039 18.2137 54.1179 17.8681 54.1179 17.53H49.9179ZM51.9829 16.305H38.7879V20.505H51.9829V16.305ZM36.6929 18.5495C36.8158 20.3311 37.4582 21.9365 38.7689 23.138L41.607 20.042C41.2377 19.7035 40.9468 19.1856 40.883 18.2605L36.6929 18.5495ZM38.7901 23.1572C40.0583 24.2883 41.6016 24.845 43.3029 24.845V20.645C42.5776 20.645 42.0442 20.4317 41.5857 20.0228L38.7901 23.1572ZM43.3029 24.845C44.517 24.845 45.701 24.5786 46.7272 23.9076L44.4287 20.3924C44.2415 20.5148 43.9088 20.645 43.3029 20.645V24.845ZM46.7428 23.8973C47.6769 23.2746 48.4082 22.4461 48.8827 21.4243L45.0732 19.6557C44.941 19.9405 44.739 20.1854 44.4131 20.4027L46.7428 23.8973ZM46.9779 22.64H51.5279V18.44H46.9779V22.64ZM49.5153 19.9405C49.2749 20.7477 48.8705 21.4954 48.2798 22.1935L51.486 24.9065C52.4353 23.7846 53.1276 22.5257 53.5405 21.1395L49.5153 19.9405ZM48.2766 22.1973C47.7421 22.832 47.0642 23.3485 46.208 23.741L47.9579 27.559C49.3417 26.9248 50.5304 26.0413 51.4892 24.9027L48.2766 22.1973ZM46.1927 23.7481C45.415 24.1121 44.4781 24.32 43.3379 24.32V28.52C44.9977 28.52 46.5575 28.2146 47.9732 27.5519L46.1927 23.7481ZM43.3729 9.76C41.8435 9.76 40.4284 10.2097 39.2079 11.125L41.7279 14.485C42.1875 14.1403 42.709 13.96 43.3729 13.96V9.76ZM39.2384 11.1026C37.8624 12.0963 37.1002 13.5638 36.793 15.2226L40.9228 15.9874C41.0823 15.1262 41.3934 14.727 41.6975 14.5074L39.2384 11.1026ZM38.8579 17.705H47.5029V13.505H38.8579V17.705ZM49.599 15.4767C49.4992 13.8468 48.8704 12.3884 47.6292 11.2976L44.8567 14.4524C45.1554 14.715 45.3666 15.0765 45.4069 15.7333L49.599 15.4767ZM47.6292 11.2976C46.431 10.2446 44.9633 9.76 43.3729 9.76V13.96C44.0692 13.96 44.5149 14.1521 44.8567 14.4524L47.6292 11.2976ZM55.8209 26H53.7209V28.1H55.8209V26ZM55.8209 0.800002V-1.3H53.7209V0.800002H55.8209ZM60.3009 0.800002H62.4009V-1.3H60.3009V0.800002ZM60.3009 26V28.1H62.4009V26H60.3009ZM57.9209 26V0.800002H53.7209V26H57.9209ZM55.8209 2.9H60.3009V-1.3H55.8209V2.9ZM58.2009 0.800002V26H62.4009V0.800002H58.2009ZM60.3009 23.9H55.8209V28.1H60.3009V23.9ZM68.6935 25.265L69.732 23.4398L68.6935 25.265ZM65.4735 22.045L63.6407 23.0701L63.6473 23.0819L63.654 23.0935L65.4735 22.045ZM65.4735 12.595L63.654 11.5465L63.6473 11.5581L63.6407 11.5699L65.4735 12.595ZM68.6935 9.375L69.732 11.2002L68.6935 9.375ZM78.9835 9.97L77.7031 11.6345L77.7112 11.6407L77.7194 11.6469L78.9835 9.97ZM81.8885 14.73V16.83H84.4675L83.945 14.3045L81.8885 14.73ZM77.1635 14.73L75.1401 15.2921L75.5673 16.83H77.1635V14.73ZM75.7635 12.77L74.5318 14.4709L74.5648 14.4947L74.5986 14.5173L75.7635 12.77ZM70.1985 13.435L68.6569 12.009L70.1985 13.435ZM70.1985 21.205L71.7401 19.779H71.7401L70.1985 21.205ZM75.7635 21.905L74.5986 20.1577L74.5849 20.1669L74.5713 20.1763L75.7635 21.905ZM77.1635 19.91V17.81H75.5557L75.1363 19.3621L77.1635 19.91ZM81.8885 19.91L83.9419 20.35L84.4862 17.81H81.8885V19.91ZM78.9835 24.635L77.6872 22.9828V22.9829L78.9835 24.635ZM73.3835 24.32C71.9229 24.32 70.727 24.0059 69.732 23.4398L67.655 27.0902C69.3667 28.0641 71.2974 28.52 73.3835 28.52V24.32ZM69.732 23.4398C68.7104 22.8585 67.9038 22.0563 67.293 20.9965L63.654 23.0935C64.6299 24.787 65.97 26.1315 67.655 27.0902L69.732 23.4398ZM67.3063 21.0199C66.7324 19.9938 66.4185 18.7798 66.4185 17.32H62.2185C62.2185 19.4069 62.6746 21.3428 63.6407 23.0701L67.3063 21.0199ZM66.4185 17.32C66.4185 15.8602 66.7324 14.6462 67.3063 13.6201L63.6407 11.5699C62.6746 13.2972 62.2185 15.2331 62.2185 17.32H66.4185ZM67.293 13.6435C67.9038 12.5837 68.7104 11.7815 69.732 11.2002L67.655 7.54976C65.97 8.50849 64.6299 9.85297 63.654 11.5465L67.293 13.6435ZM69.732 11.2002C70.727 10.6341 71.9229 10.32 73.3835 10.32V6.12C71.2974 6.12 69.3667 6.57588 67.655 7.54976L69.732 11.2002ZM73.3835 10.32C75.2136 10.32 76.6099 10.7936 77.7031 11.6345L80.2639 8.30549C78.3238 6.81308 75.9868 6.12 73.3835 6.12V10.32ZM77.7194 11.6469C78.7902 12.4541 79.5052 13.5757 79.8321 15.1555L83.945 14.3045C83.4318 11.8243 82.2101 9.77253 80.2476 8.2931L77.7194 11.6469ZM81.8885 12.63H77.1635V16.83H81.8885V12.63ZM79.1869 14.1679C78.8241 12.8619 78.0637 11.7796 76.9284 11.0227L74.5986 14.5173C74.8633 14.6937 75.0362 14.9181 75.1401 15.2921L79.1869 14.1679ZM76.9952 11.0691C75.9187 10.2896 74.67 9.935 73.3485 9.935V14.135C73.8937 14.135 74.255 14.2704 74.5318 14.4709L76.9952 11.0691ZM73.3485 9.935C71.5081 9.935 69.9051 10.6597 68.6569 12.009L71.7401 14.861C72.2186 14.3437 72.7156 14.135 73.3485 14.135V9.935ZM68.6569 12.009C67.3364 13.4366 66.8035 15.2996 66.8035 17.32H71.0035C71.0035 16.0271 71.3339 15.3001 71.7401 14.861L68.6569 12.009ZM66.8035 17.32C66.8035 19.3404 67.3364 21.2034 68.6569 22.631L71.7401 19.779C71.3339 19.3399 71.0035 18.6129 71.0035 17.32H66.8035ZM68.6569 22.631C69.9051 23.9804 71.5081 24.705 73.3485 24.705V20.505C72.7156 20.505 72.2186 20.2963 71.7401 19.779L68.6569 22.631ZM73.3485 24.705C74.648 24.705 75.8823 24.374 76.9558 23.6337L74.5713 20.1763C74.2914 20.3693 73.9157 20.505 73.3485 20.505V24.705ZM76.9284 23.6523C78.0798 22.8847 78.8338 21.7786 79.1908 20.4579L75.1363 19.3621C75.0265 19.768 74.8473 19.9919 74.5986 20.1577L76.9284 23.6523ZM77.1635 22.01H81.8885V17.81H77.1635V22.01ZM79.8351 19.47C79.5136 20.9706 78.8012 22.1088 77.6872 22.9828L80.2798 26.2872C82.1992 24.7812 83.4235 22.7694 83.9419 20.35L79.8351 19.47ZM77.6872 22.9829C76.5945 23.8402 75.2039 24.32 73.3835 24.32V28.52C75.9964 28.52 78.3392 27.8098 80.2798 26.2872L77.6872 22.9829ZM89.6448 25.265L88.5927 27.0824L88.5995 27.0863L88.6063 27.0902L89.6448 25.265ZM86.4598 22.08L84.6271 23.1051L84.6374 23.1237L84.6482 23.142L86.4598 22.08ZM86.4948 12.595L88.3065 13.657L88.3105 13.6503L88.3143 13.6435L86.4948 12.595ZM89.6798 9.375L88.6413 7.54976L88.6345 7.55366L88.6277 7.55761L89.6798 9.375ZM98.7098 9.375L97.6577 11.1924L97.6645 11.1963L97.6713 11.2002L98.7098 9.375ZM101.895 12.595L100.062 13.6201L100.072 13.6387L100.083 13.657L101.895 12.595ZM101.895 22.08L100.075 21.0315L100.07 21.0415L101.895 22.08ZM98.7098 25.265L97.6713 23.4398L98.7098 25.265ZM97.2398 21.24L98.7248 22.7249L98.7347 22.715L98.7444 22.705L97.2398 21.24ZM97.2398 13.435L95.7353 14.9L95.745 14.91L95.7549 14.9199L97.2398 13.435ZM91.1498 13.435L89.6453 11.97L89.6447 11.9706L91.1498 13.435ZM91.1498 21.24L89.6253 22.6843L89.6449 22.7049L89.6649 22.7249L91.1498 21.24ZM94.1948 24.32C92.8493 24.32 91.6954 24.0156 90.6833 23.4398L88.6063 27.0902C90.301 28.0544 92.1804 28.52 94.1948 28.52V24.32ZM90.697 23.4476C89.688 22.8634 88.8852 22.0649 88.2715 21.018L84.6482 23.142C85.6211 24.8018 86.9417 26.1266 88.5927 27.0824L90.697 23.4476ZM88.2926 21.0549C87.721 20.0329 87.4048 18.8083 87.4048 17.32H83.2048C83.2048 19.425 83.6587 21.3738 84.6271 23.1051L88.2926 21.0549ZM87.4048 17.32C87.4048 15.8415 87.728 14.6438 88.3065 13.657L84.6832 11.533C83.675 13.2529 83.2048 15.2051 83.2048 17.32H87.4048ZM88.3143 13.6435C88.9303 12.5747 89.7319 11.7714 90.732 11.1924L88.6277 7.55761C86.9678 8.51859 85.6461 9.86195 84.6753 11.5465L88.3143 13.6435ZM90.7183 11.2002C91.7304 10.6244 92.8843 10.32 94.2298 10.32V6.12C92.2154 6.12 90.336 6.58557 88.6413 7.54976L90.7183 11.2002ZM94.2298 10.32C95.5468 10.32 96.6722 10.6219 97.6577 11.1924L99.762 7.55761C98.0874 6.58812 96.2262 6.12 94.2298 6.12V10.32ZM97.6713 11.2002C98.6874 11.7783 99.4764 12.573 100.062 13.6201L103.728 11.5699C102.773 9.86369 101.439 8.51167 99.7483 7.54976L97.6713 11.2002ZM100.083 13.657C100.662 14.6438 100.985 15.8415 100.985 17.32H105.185C105.185 15.2051 104.715 13.2529 103.707 11.533L100.083 13.657ZM100.985 17.32C100.985 18.7977 100.662 20.0137 100.075 21.0315L103.714 23.1285C104.714 21.393 105.185 19.4357 105.185 17.32H100.985ZM100.07 21.0415C99.4863 22.0666 98.6965 22.8565 97.6713 23.4398L99.7483 27.0902C101.43 26.1335 102.763 24.8 103.72 23.1185L100.07 21.0415ZM97.6713 23.4398C96.6548 24.0181 95.5115 24.32 94.1948 24.32V28.52C96.1915 28.52 98.0582 28.0519 99.7483 27.0902L97.6713 23.4398ZM94.1948 24.635C95.9467 24.635 97.488 23.9617 98.7248 22.7249L95.7549 19.7551C95.265 20.245 94.7763 20.435 94.1948 20.435V24.635ZM98.7444 22.705C100.119 21.2933 100.635 19.375 100.635 17.32H96.4348C96.4348 18.7183 96.0873 19.4134 95.7353 19.775L98.7444 22.705ZM100.635 17.32C100.635 15.2696 100.121 13.3461 98.7248 11.9501L95.7549 14.9199C96.0855 15.2505 96.4348 15.917 96.4348 17.32H100.635ZM98.7444 11.97C97.5219 10.7144 95.9896 10.005 94.2298 10.005V14.205C94.7568 14.205 95.2311 14.3822 95.7353 14.9L98.7444 11.97ZM94.2298 10.005C92.4483 10.005 90.8862 10.6955 89.6453 11.97L92.6544 14.9C93.1402 14.4012 93.6314 14.205 94.2298 14.205V10.005ZM89.6447 11.9706C88.2847 13.3683 87.7898 15.2838 87.7898 17.32H91.9898C91.9898 15.9028 92.335 15.2283 92.655 14.8994L89.6447 11.9706ZM87.7898 17.32C87.7898 19.361 88.2867 21.2712 89.6253 22.6843L92.6743 19.7957C92.333 19.4355 91.9898 18.7323 91.9898 17.32H87.7898ZM89.6649 22.7249C90.9017 23.9617 92.443 24.635 94.1948 24.635V20.435C93.6133 20.435 93.1247 20.245 92.6348 19.7551L89.6649 22.7249ZM107.09 26H104.99V28.1H107.09V26ZM107.09 8.64V6.54H104.99V8.64H107.09ZM111.045 8.64L113.118 8.29978L112.829 6.54H111.045V8.64ZM111.43 10.985L109.358 11.3252L110.222 16.5841L113.178 12.1499L111.43 10.985ZM113.635 8.99L114.631 10.839L114.639 10.8346L114.647 10.8301L113.635 8.99ZM122.56 11.335L120.712 12.3318L122.381 15.426L124.314 12.49L122.56 11.335ZM125.08 9.06L124.109 7.19817L124.101 7.20258L124.092 7.20706L125.08 9.06ZM133.795 10.25L135.359 8.84816L133.795 10.25ZM135.615 26V28.1H137.715V26H135.615ZM131.135 26H129.035V28.1H131.135V26ZM130.26 13.19L128.545 14.401L128.557 14.4176L128.569 14.434L130.26 13.19ZM124.695 13.33L123.089 11.9773L123.079 11.9898L123.068 12.0025L124.695 13.33ZM123.61 26V28.1H125.71V26H123.61ZM119.13 26H117.03V28.1H119.13V26ZM118.255 13.19L116.564 14.434L118.255 13.19ZM112.655 13.33L111.049 11.9773L111.039 11.9898L111.028 12.0025L112.655 13.33ZM111.57 26V28.1H113.67V26H111.57ZM109.19 26V8.64H104.99V26H109.19ZM107.09 10.74H111.045V6.54H107.09V10.74ZM108.973 8.98022L109.358 11.3252L113.503 10.6448L113.118 8.29978L108.973 8.98022ZM113.178 12.1499C113.542 11.603 114.016 11.17 114.631 10.839L112.64 7.14101C111.435 7.79003 110.439 8.68699 109.683 9.82013L113.178 12.1499ZM114.647 10.8301C115.23 10.5098 115.946 10.32 116.855 10.32V6.12C115.338 6.12 113.908 6.44358 112.623 7.14995L114.647 10.8301ZM116.855 10.32C118.896 10.32 120.016 11.0411 120.712 12.3318L124.409 10.3382C122.865 7.47556 120.182 6.12 116.855 6.12V10.32ZM124.314 12.49C124.744 11.8379 125.316 11.3145 126.069 10.9129L124.092 7.20706C122.745 7.92546 121.637 8.91881 120.807 10.18L124.314 12.49ZM126.052 10.9218C126.813 10.5248 127.644 10.32 128.58 10.32V6.12C126.996 6.12 125.495 6.47524 124.109 7.19817L126.052 10.9218ZM128.58 10.32C130.405 10.32 131.511 10.848 132.232 11.6518L135.359 8.84816C133.653 6.94538 131.283 6.12 128.58 6.12V10.32ZM132.232 11.6518C132.975 12.4806 133.515 13.8801 133.515 16.2H137.715C137.715 13.2932 137.043 10.726 135.359 8.84816L132.232 11.6518ZM133.515 16.2V26H137.715V16.2H133.515ZM135.615 23.9H131.135V28.1H135.615V23.9ZM133.235 26V16.62H129.035V26H133.235ZM133.235 16.62C133.235 14.8974 132.906 13.2431 131.952 11.946L128.569 14.434C128.781 14.7236 129.035 15.356 129.035 16.62H133.235ZM131.976 11.979C130.932 10.5 129.334 9.9 127.635 9.9V14.1C128.317 14.1 128.469 14.2934 128.545 14.401L131.976 11.979ZM127.635 9.9C125.836 9.9 124.256 10.592 123.089 11.9773L126.302 14.6827C126.629 14.2946 127.008 14.1 127.635 14.1V9.9ZM123.068 12.0025C121.94 13.3859 121.51 15.1546 121.51 17.04H125.71C125.71 15.752 126.005 15.0474 126.323 14.6575L123.068 12.0025ZM121.51 17.04V26H125.71V17.04H121.51ZM123.61 23.9H119.13V28.1H123.61V23.9ZM121.23 26V16.62H117.03V26H121.23ZM121.23 16.62C121.23 14.8974 120.901 13.2431 119.947 11.946L116.564 14.434C116.776 14.7236 117.03 15.356 117.03 16.62H121.23ZM119.947 11.946C118.876 10.4885 117.268 9.9 115.56 9.9V14.1C116.279 14.1 116.469 14.3048 116.564 14.434L119.947 11.946ZM115.56 9.9C113.77 9.9 112.207 10.6025 111.049 11.9773L114.262 14.6827C114.597 14.2842 114.971 14.1 115.56 14.1V9.9ZM111.028 12.0025C109.9 13.3859 109.47 15.1546 109.47 17.04H113.67C113.67 15.752 113.965 15.0474 114.283 14.6575L111.028 12.0025ZM109.47 17.04V26H113.67V17.04H109.47ZM111.57 23.9H107.09V28.1H111.57V23.9ZM143.649 25.3L144.663 23.4613L143.649 25.3ZM140.429 12.665L138.589 11.653L138.582 11.6648L138.576 11.6768L140.429 12.665ZM143.579 9.41L144.631 11.2274L144.641 11.2217L143.579 9.41ZM152.854 9.34L151.812 11.1633V11.1633L152.854 9.34ZM155.899 12.42L154.061 13.4371L154.072 13.4567L154.084 13.4761L155.899 12.42ZM156.984 17.53L154.891 17.3556L154.884 17.4427V17.53H156.984ZM156.949 18.405V20.505H158.893L159.043 18.5661L156.949 18.405ZM143.754 18.405V16.305H141.504L141.659 18.5495L143.754 18.405ZM145.154 21.59L143.735 23.138L143.745 23.1477L143.756 23.1572L145.154 21.59ZM150.544 22.15L151.693 23.9076L151.701 23.9025L151.709 23.8973L150.544 22.15ZM151.944 20.54V18.44H150.603L150.039 19.6557L151.944 20.54ZM156.494 20.54L158.506 21.1395L159.31 18.44H156.494V20.54ZM154.849 23.55L153.246 22.1935L153.242 22.1973L154.849 23.55ZM152.049 25.65L151.174 23.741L151.166 23.7445L151.158 23.7481L152.049 25.65ZM145.434 12.805L146.663 14.5074L146.679 14.4964L146.694 14.485L145.434 12.805ZM143.824 15.605L141.759 15.2226L141.299 17.705H143.824V15.605ZM152.469 15.605V17.705H154.701L154.565 15.4767L152.469 15.605ZM151.209 12.875L152.595 11.2976L151.209 12.875ZM148.304 24.32C146.861 24.32 145.667 24.0149 144.663 23.4613L142.634 27.1387C144.337 28.0784 146.247 28.52 148.304 28.52V24.32ZM144.663 23.4613C143.651 22.903 142.869 22.1311 142.289 21.1115L138.639 23.1885C139.598 24.8756 140.939 26.2037 142.634 27.1387L144.663 23.4613ZM142.289 21.1115C141.723 20.1165 141.409 18.9206 141.409 17.46H137.209C137.209 19.5461 137.665 21.4768 138.639 23.1885L142.289 21.1115ZM141.409 17.46C141.409 15.9619 141.718 14.7108 142.282 13.6532L138.576 11.6768C137.647 13.4192 137.209 15.3648 137.209 17.46H141.409ZM142.269 13.677C142.862 12.5983 143.645 11.7979 144.631 11.2274L142.527 7.59261C140.852 8.5621 139.535 9.93169 138.589 11.653L142.269 13.677ZM144.641 11.2217C145.624 10.6456 146.832 10.32 148.339 10.32V6.12C146.206 6.12 144.241 6.58776 142.517 7.59834L144.641 11.2217ZM148.339 10.32C149.726 10.32 150.863 10.6208 151.812 11.1633L153.896 7.51669C152.232 6.56584 150.359 6.12 148.339 6.12V10.32ZM151.812 11.1633C152.787 11.7207 153.526 12.4696 154.061 13.4371L157.736 11.4029C156.825 9.75704 155.534 8.45265 153.896 7.51669L151.812 11.1633ZM154.084 13.4761C154.631 14.4167 154.919 15.483 154.919 16.725H159.119C159.119 14.7937 158.66 12.99 157.714 11.3639L154.084 13.4761ZM154.919 16.725C154.919 16.9183 154.91 17.1282 154.891 17.3556L159.076 17.7044C159.104 17.3718 159.119 17.045 159.119 16.725H154.919ZM154.884 17.53C154.884 17.7519 154.874 17.9897 154.855 18.2439L159.043 18.5661C159.07 18.2137 159.084 17.8681 159.084 17.53H154.884ZM156.949 16.305H143.754V20.505H156.949V16.305ZM141.659 18.5495C141.782 20.3311 142.424 21.9365 143.735 23.138L146.573 20.042C146.204 19.7035 145.913 19.1856 145.849 18.2605L141.659 18.5495ZM143.756 23.1572C145.024 24.2883 146.567 24.845 148.269 24.845V20.645C147.543 20.645 147.01 20.4317 146.552 20.0228L143.756 23.1572ZM148.269 24.845C149.483 24.845 150.667 24.5786 151.693 23.9076L149.395 20.3924C149.207 20.5148 148.875 20.645 148.269 20.645V24.845ZM151.709 23.8973C152.643 23.2746 153.374 22.4461 153.848 21.4243L150.039 19.6557C149.907 19.9405 149.705 20.1854 149.379 20.4027L151.709 23.8973ZM151.944 22.64H156.494V18.44H151.944V22.64ZM154.481 19.9405C154.241 20.7477 153.836 21.4954 153.246 22.1935L156.452 24.9065C157.401 23.7846 158.093 22.5257 158.506 21.1395L154.481 19.9405ZM153.242 22.1973C152.708 22.832 152.03 23.3485 151.174 23.741L152.924 27.559C154.307 26.9248 155.496 26.0413 156.455 24.9027L153.242 22.1973ZM151.158 23.7481C150.381 24.1121 149.444 24.32 148.304 24.32V28.52C149.964 28.52 151.523 28.2146 152.939 27.5519L151.158 23.7481ZM148.339 9.76C146.809 9.76 145.394 10.2097 144.174 11.125L146.694 14.485C147.153 14.1403 147.675 13.96 148.339 13.96V9.76ZM144.204 11.1026C142.828 12.0963 142.066 13.5638 141.759 15.2226L145.889 15.9874C146.048 15.1262 146.359 14.727 146.663 14.5074L144.204 11.1026ZM143.824 17.705H152.469V13.505H143.824V17.705ZM154.565 15.4767C154.465 13.8468 153.836 12.3884 152.595 11.2976L149.823 14.4524C150.121 14.715 150.332 15.0765 150.373 15.7333L154.565 15.4767ZM152.595 11.2976C151.397 10.2446 149.929 9.76 148.339 9.76V13.96C149.035 13.96 149.481 14.1521 149.823 14.4524L152.595 11.2976ZM161.732 18.265L159.633 18.3264L159.692 20.365H161.732V18.265ZM161.242 1.5V-0.599998H159.079L159.143 1.56135L161.242 1.5ZM166.037 1.5L168.136 1.56573L168.204 -0.599998H166.037V1.5ZM165.512 18.265V20.365H167.547L167.611 18.3307L165.512 18.265ZM161.662 25.475L160.177 26.9599L160.193 26.9764L160.21 26.9925L161.662 25.475ZM161.662 21.73L160.21 20.2125L160.193 20.2286L160.177 20.2451L161.662 21.73ZM165.687 21.73L164.202 23.2149L164.218 23.2314L164.235 23.2475L165.687 21.73ZM165.687 25.475L164.235 23.9575L164.218 23.9736L164.202 23.9901L165.687 25.475ZM163.831 18.2036L163.341 1.43865L159.143 1.56135L159.633 18.3264L163.831 18.2036ZM161.242 3.6H166.037V-0.599998H161.242V3.6ZM163.938 1.43427L163.413 18.1993L167.611 18.3307L168.136 1.56573L163.938 1.43427ZM165.512 16.165H161.732V20.365H165.512V16.165ZM163.727 24.145C163.351 24.145 163.207 24.0471 163.113 23.9575L160.21 26.9925C161.19 27.9296 162.423 28.345 163.727 28.345V24.145ZM163.147 23.9901C163.026 23.869 162.992 23.7841 162.992 23.62H158.792C158.792 24.9026 159.271 26.0544 160.177 26.9599L163.147 23.9901ZM162.992 23.62C162.992 23.4125 163.04 23.322 163.147 23.2149L160.177 20.2451C159.257 21.1646 158.792 22.3342 158.792 23.62H162.992ZM163.113 23.2475C163.207 23.1579 163.351 23.06 163.727 23.06V18.86C162.423 18.86 161.19 19.2754 160.21 20.2125L163.113 23.2475ZM163.727 23.06C164.02 23.06 164.121 23.1339 164.202 23.2149L167.172 20.2451C166.226 19.2994 165.02 18.86 163.727 18.86V23.06ZM164.235 23.2475C164.355 23.3623 164.392 23.443 164.392 23.62H168.592C168.592 22.3037 168.092 21.1244 167.138 20.2125L164.235 23.2475ZM164.392 23.62C164.392 23.7532 164.37 23.8284 164.235 23.9575L167.138 26.9925C168.077 26.095 168.592 24.9335 168.592 23.62H164.392ZM164.202 23.9901C164.121 24.0711 164.02 24.145 163.727 24.145V28.345C165.02 28.345 166.226 27.9056 167.172 26.9599L164.202 23.9901Z" fill="white"/>
</svg>
